<?xml version="1.0" standalone="no"?>
<!DOCTYPE svg PUBLIC "-//W3C//DTD SVG 1.1//EN" "http://www.w3.org/Graphics/SVG/1.1/DTD/svg11.dtd" >
<svg xmlns="http://www.w3.org/2000/svg">
<metadata>Generated by IcoMoon</metadata>
<defs>
<font id="icomoon" horiz-adv-x="1024">
<font-face units-per-em="1024" ascent="960" descent="-64" />
<missing-glyph horiz-adv-x="1024" />
<glyph unicode="&#x20;" horiz-adv-x="512" d="" />
<glyph unicode="&#xe900;" glyph-name="AccountCenter" d="M341.505 618.667c0 93.867 76.8 170.667 170.665 170.667 93.867 0 170.667-76.8 170.667-170.667s-76.8-170.667-170.667-170.667c-21.333 0-38.4 4.267-55.467 8.533-12.8 12.8-25.6 21.333-42.665 21.333-42.667 29.867-72.533 81.067-72.533 140.8zM810.837 490.667c47.13 0 85.333 38.204 85.333 85.333 0 47.128-38.204 85.333-85.333 85.333-47.125 0-85.333-38.205-85.333-85.333 0-47.13 38.208-85.333 85.333-85.333zM862.037 418.133h-76.8c-21.333 0-42.667-8.533-55.467-21.333 46.933-25.6 81.067-72.533 89.6-128 0-4.267 4.267-8.533 8.533-8.533h81.067c17.067 0 29.867 12.8 29.867 29.867v46.933c0 42.667-34.133 81.067-76.8 81.067zM486.575 294.4c48.141-36.109 17.062-87.305-8.102-128.764-1.596-2.633-3.17-5.222-4.698-7.77v-4.267c-25.6-25.6-55.468-46.933-89.601-29.867-4.267 0-4.267-4.267-4.267-4.267 0-1.421-0.948-3.319-1.896-5.214-1.896-3.793-3.793-7.586 1.896-7.586h375.468c39.211 0 38.383 47.548 37.76 83.23-0.188 10.91-0.358 20.71 0.64 27.703 0 93.867-72.533 166.4-166.4 166.4-17.724-1.771-33.242-6.49-48.384-11.093-21.308-6.481-41.877-12.736-66.816-10.24l-4.267-4.267c0-21.333-4.267-42.667-21.333-55.467 0 0-4.267-4.267 0-8.533zM435.375 281.6l25.6-21.333c8.533-4.267 12.8-17.067 4.267-25.6l-34.133-68.267c-8.535-8.533-21.335-12.8-29.869-8.533l-29.867 12.8c-4.267 4.267-8.533 4.267-12.8 0-2.133 0-3.2-1.067-4.267-2.133s-2.133-2.133-4.267-2.133c-4.267 0-8.533-4.267-8.533-8.533l-8.533-34.133c0-8.533-8.533-17.067-21.333-17.067h-72.533c-8.533 0-17.067 8.533-17.067 25.6l-4.267 34.133c0 4.267-4.267 8.533-8.533 8.533-2.133 0-3.2 1.067-4.267 2.133s-2.133 2.133-4.267 2.133h-12.8l-29.867-12.8c-12.8-4.267-25.6 0-29.867 8.533l-38.4 59.733c-8.533 8.533-4.267 21.333 8.533 25.6l25.6 21.333c4.267 4.267 4.267 8.533 4.267 12.8v8.533c0 4.267-4.267 8.533-8.533 8.533l-25.6 21.333c-8.533 8.533-8.533 21.333-4.267 29.867l34.133 64c8.533 8.533 21.333 12.8 29.867 8.533l29.867-8.533c4.267-4.267 8.533-4.267 12.8 0 2.133 0 3.2 1.067 4.267 2.133s2.133 2.133 4.267 2.133c4.267 0 8.533 4.267 8.533 8.533l4.267 34.133c4.267 8.533 12.8 17.067 21.333 17.067h76.8c8.533 0 17.067-8.533 21.333-17.067l4.267-34.133c0-4.267 4.267-8.533 8.533-12.8 2.133 0 3.2-1.067 4.267-2.133s2.133-2.133 4.267-2.133h12.8l29.867 12.8c12.8 4.267 21.333 0 29.869-8.533l34.133-64c8.533-8.533 4.267-21.333-8.533-25.6l-25.6-21.333c-4.267-4.267-4.267-8.533-4.267-12.8v-8.533c0-4.267 4.267-8.533 8.533-12.8zM213.506 298.667c0-34.133 29.867-64 64-64s64 29.867 64 64c0 34.133-29.867 64-64 64s-64-29.867-64-64z" />
<glyph unicode="&#xe901;" glyph-name="Action" d="M435.401 277.879c0-53.935 16.849-103.902 45.521-144.823h-317.592c-19.511 0-35.329 16.171-35.329 36.117v626.709c0 19.946 15.819 36.117 35.329 36.117h678.74c19.511 0 35.328-16.172 35.328-36.117v-359.949c-45.602 56.751-115.238 93.022-193.271 93.022-137.365 0-248.725-112.41-248.725-251.076zM185.917 619.43c0-15.955 12.18-28.894 27.195-28.894h581.524c15.014 0 27.191 12.939 27.191 28.894s-12.169 28.894-27.191 28.894h-581.524c-15.015 0-27.195-12.939-27.195-28.894zM400.431 362.701c15.006 0 27.179 12.937 27.179 28.89 0 15.957-12.164 28.894-27.179 28.894h-187.336c-15.006 0-27.177-12.937-27.177-28.894 0-15.953 12.171-28.89 27.177-28.89h187.336zM896 259.281c0-107.853-86.613-195.281-193.455-195.281s-193.455 87.428-193.455 195.281c0 107.853 86.613 195.281 193.455 195.281s193.455-87.428 193.455-195.281zM621.769 144.998l0.038 0.021c25.574 67.345 51.631 103.275 90.603 108.395v-30.946c-0.026-3.964 2.142-7.607 5.615-9.438 3.422-1.771 7.556-1.327 10.53 1.139l89.89 73.604c2.458 2.031 3.883 5.082 3.87 8.299 0 3.26-1.434 6.319-3.87 8.303l-89.907 73.583c-2.974 2.458-7.095 2.901-10.513 1.139-3.447-1.766-5.615-5.419-5.615-9.438v-33.126c-80.38-15.441-119.023-73.092-109.862-188.51 0.887-11.029 15.313-13.325 19.221-3.025z" />
<glyph unicode="&#xe902;" glyph-name="Add" d="M810.667 490.667h-256v256c0 23.564-19.102 42.667-42.667 42.667s-42.667-19.103-42.667-42.667v-256h-256c-23.564 0-42.667-19.102-42.667-42.667s19.103-42.667 42.667-42.667h256v-256c0-23.565 19.102-42.667 42.667-42.667s42.667 19.102 42.667 42.667v256h256c23.565 0 42.667 19.102 42.667 42.667s-19.102 42.667-42.667 42.667z" />
<glyph unicode="&#xe903;" glyph-name="AddCircle" d="M512 874.667c-235.642 0-426.667-191.025-426.667-426.667 0-235.639 191.025-426.667 426.667-426.667 235.639 0 426.667 191.027 426.667 426.667 0 113.159-44.954 221.683-124.966 301.699-80.017 80.015-188.54 124.968-301.7 124.968zM682.667 405.333h-128v-128c0-23.565-19.102-42.667-42.667-42.667s-42.667 19.102-42.667 42.667v128h-128c-23.564 0-42.667 19.102-42.667 42.667s19.103 42.667 42.667 42.667h128v128c0 23.564 19.102 42.667 42.667 42.667s42.667-19.103 42.667-42.667v-128h128c23.565 0 42.667-19.102 42.667-42.667s-19.102-42.667-42.667-42.667z" />
<glyph unicode="&#xe904;" glyph-name="AdminAccount" d="M544 374.251c0-11.43-5.99-21.461-15.006-27.119l42.027-109.274c3.029-7.872 1.135-16.785-4.826-22.746l-39.113-39.113c-8.329-8.329-21.837-8.329-30.17 0l-39.108 39.113c-5.965 5.961-7.855 14.874-4.83 22.746l42.031 109.274c-9.015 5.658-15.006 15.689-15.006 27.119 0 17.673 14.327 32 32 32s32-14.327 32-32zM704 640c0-59.559-27.119-112.785-69.683-148.002 8.303-2.79 16.521-5.867 24.636-9.229 46.588-19.298 88.917-47.582 124.578-83.238 35.657-35.657 63.94-77.99 83.238-124.578 19.298-46.592 29.231-96.525 29.231-146.953 0-35.345-28.655-64-64-64h-640c-35.346 0-64 28.655-64 64 0 50.428 9.932 100.361 29.231 146.953 19.297 46.588 47.583 88.922 83.24 124.578s77.99 63.94 124.579 83.238c8.114 3.362 16.331 6.438 24.633 9.229-42.563 35.217-69.682 88.443-69.682 148.002 0 106.039 85.961 192 192 192s192-85.961 192-192zM512 512c70.694 0 128 57.308 128 128s-57.306 128-128 128c-70.694 0-128-57.308-128-128s57.306-128 128-128zM512 448c-1.216 0-2.432 0.013-3.644 0.034-40.789-0.465-81.126-8.725-118.836-24.341-38.831-16.085-74.113-39.659-103.833-69.38-29.72-29.717-53.295-65.003-69.379-103.834-13.359-32.252-21.333-66.423-23.652-101.163-0.785-11.755 8.841-21.316 20.623-21.316h597.443c11.78 0 21.406 9.562 20.621 21.316-2.317 34.739-10.291 68.911-23.65 101.163-16.085 38.831-39.659 74.116-69.38 103.834-29.717 29.722-65.003 53.295-103.834 69.38-37.709 15.616-78.046 23.876-118.835 24.341-1.212-0.021-2.428-0.034-3.644-0.034z" />
<glyph unicode="&#xe905;" glyph-name="AdminCluster" d="M754.982 292.041c7.258 4.019 13.018 13.658 13.018 21.696v239.732c0 8.041-5.837 17.676-13.018 21.697l-221.649 122.882c-12.134 7.736-28.992 8.137-42.667 0l-196.885-112.357c-7.22-4.12-7.161-14.549 0.105-18.587l233.9-130.008c7.181-4.023 13.227-13.581 13.227-21.623v-212.787c0-7.923 8.333-13.082 15.424-9.549l198.545 98.906zM693.248 328.414l-87.94-46.899v166.793c0 6.997-7.637 15.309-13.879 18.807l-201.752 112.846 102.207 60.907c11.891 7.078 26.556 6.729 37.111 0l164.254-89.533c6.246-3.497 11.324-11.878 11.324-18.871v-185.178c0-6.993-5.009-15.373-11.324-18.871zM478.498 203.447v186.138c0 8.708-6.49 19.469-14.528 23.859l-192.185 105.105c-7.108 3.887-15.785-1.254-15.785-9.357v-186.214c0-8.853 6.492-19.319 14.452-23.714l192.259-105.173c7.108-3.891 15.787 1.254 15.787 9.357zM497.86 871.386l-355.721-199.716c-7.798-4.416-14.14-15.081-14.14-23.829v-399.517c0-8.747 6.342-19.413 14.14-23.829l355.721-199.881c7.799-4.335 20.48-4.416 28.279 0l355.721 199.799c7.799 4.416 14.14 15.078 14.14 23.829v399.514c0 8.748-6.34 19.413-14.14 23.829l-355.721 199.799c-7.799 4.332-20.48 4.416-28.279 0zM498.641 807.501c7.415 4.207 19.302 4.207 26.718 0.081l293.282-168.285c7.415-4.207 13.359-14.482 13.359-22.977v-336.567c0-8.495-5.943-18.773-13.359-22.98l-293.282-168.282c-7.415-4.211-19.302-4.211-26.718 0l-293.284 168.282c-7.412 4.207-13.357 14.485-13.357 22.98v336.486c0 8.495 5.946 18.77 13.357 22.978l293.284 168.285z" />
<glyph unicode="&#xe906;" glyph-name="AdminCompany" d="M256 661.333c0 23.564 19.103 42.667 42.667 42.667h170.667c23.565 0 42.667-19.103 42.667-42.667v-170.667c0-23.565-19.102-42.667-42.667-42.667h-170.667c-23.564 0-42.667 19.102-42.667 42.667v170.667zM320 629.333v-106.667c0-5.892 4.776-10.667 10.667-10.667h106.667c5.892 0 10.667 4.774 10.667 10.667v106.667c0 5.891-4.774 10.667-10.667 10.667h-106.667c-5.891 0-10.667-4.776-10.667-10.667zM298.667 362.667c0 11.78 9.551 21.333 21.333 21.333h128c11.78 0 21.333-9.553 21.333-21.333v-21.333c0-11.78-9.553-21.333-21.333-21.333h-128c-11.782 0-21.333 9.553-21.333 21.333v21.333zM298.667 234.667c0 11.78 9.551 21.333 21.333 21.333h128c11.78 0 21.333-9.553 21.333-21.333v-21.333c0-11.78-9.553-21.333-21.333-21.333h-128c-11.782 0-21.333 9.553-21.333 21.333v21.333zM128 768c0 35.346 28.654 64 64 64h384c35.345 0 64-28.654 64-64v-640h234.667c11.78 0 21.333-9.553 21.333-21.333v-21.333c0-11.78-9.553-21.333-21.333-21.333h-768c-11.782 0-21.333 9.553-21.333 21.333v21.333c0 11.78 9.551 21.333 21.333 21.333h21.333v640zM192 128h384v618.667c0 11.782-9.553 21.333-21.333 21.333h-341.333c-11.782 0-21.333-9.551-21.333-21.333v-618.667zM725.333 704h192c11.78 0 21.333-9.551 21.333-21.333v-42.667c0-11.782-9.553-21.333-21.333-21.333h-192c-11.78 0-21.333 9.551-21.333 21.333v42.667c0 11.782 9.553 21.333 21.333 21.333zM704 512c0 11.78 9.553 21.333 21.333 21.333h149.333c11.78 0 21.333-9.553 21.333-21.333v-42.667c0-11.78-9.553-21.333-21.333-21.333h-149.333c-11.78 0-21.333 9.553-21.333 21.333v42.667zM725.333 362.667h106.667c11.78 0 21.333-9.553 21.333-21.333v-42.667c0-11.78-9.553-21.333-21.333-21.333h-106.667c-11.78 0-21.333 9.553-21.333 21.333v42.667c0 11.78 9.553 21.333 21.333 21.333z" />
<glyph unicode="&#xe907;" glyph-name="AdminDataStatistics" d="M816.205 143.795c8.606-8.606 22.694-8.311 30.447 1.067 59.806 72.341 92.015 157.824 92.015 260.471 0 235.641-191.023 426.667-426.667 426.667-235.642 0-426.667-191.026-426.667-426.667 0-102.647 32.209-188.13 92.014-260.471 7.752-9.378 21.843-9.673 30.446-1.067l12.861 12.86c7.901 7.898 8.307 20.518 1.493 29.372-46.908 60.966-72.814 135.97-72.814 219.307 0 200.294 162.371 362.667 362.667 362.667 200.294 0 362.667-162.372 362.667-362.667 0-83.337-25.907-158.34-72.815-219.307-6.814-8.853-6.404-21.474 1.493-29.372l12.86-12.86zM682.846 578.588c-8.333 8.331-21.841 8.331-30.17 0l-116.416-116.414c-7.689 2.278-15.834 3.499-24.26 3.499-47.13 0-85.333-38.204-85.333-85.333s38.204-85.333 85.333-85.333c47.13 0 85.333 38.204 85.333 85.333 0 6.852-0.806 13.513-2.334 19.895l118.016 118.012c8.329 8.333 8.329 21.841 0 30.172l-30.17 30.17zM618.667 149.333c11.78 0 21.333-9.553 21.333-21.333v-42.667c0-11.78-9.553-21.333-21.333-21.333h-213.333c-11.782 0-21.333 9.553-21.333 21.333v42.667c0 11.78 9.551 21.333 21.333 21.333h213.333zM512 725.333c-23.565 0-42.667-19.103-42.667-42.667s19.102-42.667 42.667-42.667c23.565 0 42.667 19.103 42.667 42.667s-19.102 42.667-42.667 42.667zM682.667 234.667c0 23.565 19.102 42.667 42.667 42.667s42.667-19.102 42.667-42.667c0-23.565-19.102-42.667-42.667-42.667s-42.667 19.102-42.667 42.667zM298.667 277.333c-23.564 0-42.667-19.102-42.667-42.667s19.103-42.667 42.667-42.667c23.564 0 42.667 19.102 42.667 42.667s-19.103 42.667-42.667 42.667z" />
<glyph unicode="&#xe908;" glyph-name="AdminDevice" d="M362.667 832c-11.782 0-21.333-9.551-21.333-21.333v-21.333c0-11.782 9.551-21.333 21.333-21.333h298.667c11.78 0 21.333 9.551 21.333 21.333v21.333c0 11.782-9.553 21.333-21.333 21.333h-298.667zM256 682.667v-21.333c0-11.782 9.551-21.333 21.333-21.333h469.333c11.78 0 21.333 9.551 21.333 21.333v21.333c0 11.782-9.553 21.333-21.333 21.333h-469.333c-11.782 0-21.333-9.551-21.333-21.333zM362.667 256c35.346 0 64 28.655 64 64s-28.654 64-64 64c-35.346 0-64-28.655-64-64s28.654-64 64-64zM554.667 426.667v-213.333c0-11.78 9.553-21.333 21.333-21.333h21.333c11.78 0 21.333 9.553 21.333 21.333v213.333c0 11.78-9.553 21.333-21.333 21.333h-21.333c-11.78 0-21.333-9.553-21.333-21.333zM704 448c-11.78 0-21.333-9.553-21.333-21.333v-213.333c0-11.78 9.553-21.333 21.333-21.333h21.333c11.78 0 21.333 9.553 21.333 21.333v213.333c0 11.78-9.553 21.333-21.333 21.333h-21.333zM128 512v-384c0-35.345 28.654-64 64-64h640c35.345 0 64 28.655 64 64v384c0 35.346-28.655 64-64 64h-640c-35.346 0-64-28.654-64-64zM192 490.667c0 11.78 9.551 21.333 21.333 21.333h597.333c11.78 0 21.333-9.553 21.333-21.333v-341.333c0-11.78-9.553-21.333-21.333-21.333h-597.333c-11.782 0-21.333 9.553-21.333 21.333v341.333z" />
<glyph unicode="&#xe909;" glyph-name="AdminFota" d="M528.435 826.167c-9.28 7.777-23.59 7.777-32.87 0l-253.053-212.010c-16.209-13.581-5.623-38.157 16.437-38.157h506.103c22.059 0 32.644 24.576 16.435 38.157l-253.052 212.010zM512 756.445l138.987-116.445h-277.973l138.986 116.445zM384 533.333c-11.782 0-21.333-9.553-21.333-21.333v-21.333c0-11.785 9.551-21.333 21.333-21.333h256c11.78 0 21.333 9.549 21.333 21.333v21.333c0 11.78-9.553 21.333-21.333 21.333h-256zM426.667 426.667c-11.782 0-21.333-9.553-21.333-21.333v-21.333c0-11.785 9.551-21.333 21.333-21.333h170.667c11.78 0 21.333 9.549 21.333 21.333v21.333c0 11.78-9.553 21.333-21.333 21.333h-170.667zM832 192c0 17.673-14.327 32-32 32s-32-14.327-32-32c0-17.673 14.327-32 32-32s32 14.327 32 32zM672 160c17.673 0 32 14.327 32 32s-14.327 32-32 32c-17.673 0-32-14.327-32-32s14.327-32 32-32zM85.333 256v-128c0-35.345 28.654-64 64-64h725.333c35.345 0 64 28.655 64 64v128c0 35.345-28.655 64-64 64h-725.333c-35.346 0-64-28.655-64-64zM149.333 234.667c0 11.78 9.551 21.333 21.333 21.333h682.667c11.78 0 21.333-9.553 21.333-21.333v-85.333c0-11.785-9.553-21.333-21.333-21.333h-682.667c-11.782 0-21.333 9.549-21.333 21.333v85.333z" />
<glyph unicode="&#xe90a;" glyph-name="AdminOrder" d="M341.333 704h341.333c11.78 0 21.333-9.551 21.333-21.333v-21.333c0-11.782-9.553-21.333-21.333-21.333h-341.333c-11.782 0-21.333 9.551-21.333 21.333v21.333c0 11.782 9.551 21.333 21.333 21.333zM341.333 512h341.333c11.78 0 21.333-9.553 21.333-21.333v-21.333c0-11.78-9.553-21.333-21.333-21.333h-341.333c-11.782 0-21.333 9.553-21.333 21.333v21.333c0 11.78 9.551 21.333 21.333 21.333zM320 298.667c0 11.78 9.551 21.333 21.333 21.333h256c11.78 0 21.333-9.553 21.333-21.333v-21.333c0-11.78-9.553-21.333-21.333-21.333h-256c-11.782 0-21.333 9.553-21.333 21.333v21.333zM170.667 810.539c0 35.417 28.654 64.128 64 64.128h554.667c35.345 0 64-28.711 64-64.128v-717.581c0-8.542-5.094-16.256-12.945-19.614l-51.055-21.833-76.625-28.629c-5.551-2.078-11.721-1.745-17.020 0.909l-68.442 34.287c-5.457 2.735-11.823 2.999-17.489 0.73l-89.822-35.998c-5.094-2.044-10.778-2.044-15.872 0l-89.821 35.998c-5.667 2.27-12.035 2.005-17.492-0.73l-68.438-34.287c-5.301-2.654-11.468-2.987-17.022-0.909l-76.624 28.629-51.055 21.833c-7.852 3.358-12.945 11.072-12.945 19.614v717.581zM768 810.539h-512c-11.782 0-21.333-9.571-21.333-21.376v-654.967c0-8.55 5.107-16.277 12.975-19.627l64-27.255c5.34-2.274 11.377-2.274 16.717 0l69.464 29.581c4.836 2.061 10.262 2.261 15.238 0.567l92.062-31.364c4.459-1.519 9.297-1.519 13.756 0l92.062 31.364c4.975 1.694 10.402 1.493 15.236-0.567l69.466-29.581c5.342-2.274 11.375-2.274 16.717 0l64 27.255c7.868 3.349 12.975 11.076 12.975 19.627v654.967c0 11.805-9.553 21.376-21.333 21.376z" />
<glyph unicode="&#xe90b;" glyph-name="AdminQuick" d="M830.541 731.868c-78.144 87.622-191.898 142.799-318.541 142.799-235.642 0-426.667-191.026-426.667-426.667 0-7.855 0.212-15.659 0.631-23.407 0.592-10.948 9.83-19.26 20.795-19.26h21.075c12.767-0.004 22.626 11.14 21.976 23.889-0.317 6.221-0.477 12.48-0.477 18.778 0 200.294 162.371 362.667 362.667 362.667 102.857 0 195.716-42.82 261.717-111.605l-33.348-19.253c-14.221-8.211-14.221-28.739 0-36.95l120.755-69.716c14.221-8.211 32 2.053 32 18.476v139.432c0 16.422-17.779 26.687-32 18.476l-30.583-17.657zM512 21.333c235.644 0 426.667 191.027 426.667 426.667 0 7.855-0.213 15.659-0.631 23.407-0.593 10.948-9.83 19.26-20.796 19.26h-21.073c-12.77 0.004-22.626-11.14-21.978-23.889 0.316-6.221 0.478-12.48 0.478-18.778 0-200.294-162.372-362.667-362.667-362.667-102.839 0-195.679 42.803-261.679 111.569l33.412 19.29c14.222 8.209 14.222 28.74 0 36.949l-120.752 69.717c-14.222 8.209-32-2.052-32-18.475v-139.435c0-16.422 17.778-26.684 32-18.475l30.514 17.617c78.14-87.599 191.881-142.758 318.505-142.758zM536.294 661.245c-8.947 0.806-17.604-3.936-22.426-12.282l-126.048-218.272c-11.008-19.059 3.284-43.255 23.611-39.966l66.401 10.739-11.755-138.458c-1.225-14.417 8.461-27.063 21.628-28.25 8.947-0.806 17.604 3.934 22.426 12.279l126.050 218.274c11.008 19.063-3.285 43.255-23.612 39.966l-66.402-10.739 11.755 138.457c1.225 14.415-8.461 27.064-21.628 28.251z" />
<glyph unicode="&#xe90c;" glyph-name="AdminRecord" d="M384 853.333v-42.667c0-11.782 9.551-21.333 21.333-21.333h213.333c11.78 0 21.333 9.551 21.333 21.333v42.667c0 11.782-9.553 21.333-21.333 21.333h-213.333c-11.782 0-21.333-9.551-21.333-21.333zM341.333 810.667c0 11.782-9.551 21.333-21.333 21.333h-85.333c-35.346 0-64-28.654-64-64v-682.667c0-35.345 28.654-64 64-64h554.667c35.345 0 64 28.655 64 64v682.667c0 35.346-28.655 64-64 64h-85.333c-11.78 0-21.333-9.551-21.333-21.333v-21.333c0-11.782 9.553-21.333 21.333-21.333h64c11.78 0 21.333-9.551 21.333-21.333v-640c0-11.78-9.553-21.333-21.333-21.333h-512c-11.782 0-21.333 9.553-21.333 21.333v640c0 11.782 9.551 21.333 21.333 21.333h64c11.782 0 21.333 9.551 21.333 21.333v21.333zM341.333 661.333c-11.782 0-21.333-9.551-21.333-21.333v-21.333c0-11.782 9.551-21.333 21.333-21.333h341.333c11.78 0 21.333 9.551 21.333 21.333v21.333c0 11.782-9.553 21.333-21.333 21.333h-341.333zM320 448v-21.333c0-11.78 9.551-21.333 21.333-21.333h341.333c11.78 0 21.333 9.553 21.333 21.333v21.333c0 11.78-9.553 21.333-21.333 21.333h-341.333c-11.782 0-21.333-9.553-21.333-21.333zM341.333 277.333c-11.782 0-21.333-9.553-21.333-21.333v-21.333c0-11.78 9.551-21.333 21.333-21.333h256c11.78 0 21.333 9.553 21.333 21.333v21.333c0 11.78-9.553 21.333-21.333 21.333h-256z" />
<glyph unicode="&#xe90d;" glyph-name="AdminSetting" d="M374.207 445.077c-21.001-43.831-13.339-97.958 22.981-134.276 36.288-36.288 90.347-43.968 134.157-23.040l68.676-68.676c7.671-7.667 20.109-7.667 27.78 0l27.78 27.78c7.667 7.671 7.667 20.109 0 27.78l-68.676 68.676c20.928 43.81 13.248 97.869-23.040 134.157-36.318 36.322-90.445 43.981-134.276 22.98-4.631-2.219-5.405-8.307-1.775-11.938l54.101-54.101c3.068-3.068 3.068-8.043 0-11.11l-30.558-30.558c-3.068-3.068-8.043-3.068-11.11 0l-54.103 54.101c-3.631 3.631-9.719 2.854-11.938-1.775zM362.667 832c-35.346 0-64-28.654-64-64v-106.667h-149.333c-35.346 0-64-28.654-64-64v-469.333c0-35.345 28.654-64 64-64h725.333c35.345 0 64 28.655 64 64v469.333c0 35.346-28.655 64-64 64h-149.333v106.667c0 35.346-28.655 64-64 64h-298.667zM661.333 661.333h-298.667v85.333c0 11.782 9.551 21.333 21.333 21.333h256c11.78 0 21.333-9.551 21.333-21.333v-85.333zM170.667 597.333h682.667c11.78 0 21.333-9.551 21.333-21.333v-426.667c0-11.78-9.553-21.333-21.333-21.333h-682.667c-11.782 0-21.333 9.553-21.333 21.333v426.667c0 11.782 9.551 21.333 21.333 21.333z" />
<glyph unicode="&#xe90e;" glyph-name="AdminSimCard" d="M405.333 714.667v-85.333c0-11.782 9.551-21.333 21.333-21.333h21.333c11.78 0 21.333 9.551 21.333 21.333v85.333c0 11.782-9.553 21.333-21.333 21.333h-21.333c-11.782 0-21.333-9.551-21.333-21.333zM533.333 736c-11.78 0-21.333-9.551-21.333-21.333v-85.333c0-11.782 9.553-21.333 21.333-21.333h21.333c11.78 0 21.333 9.551 21.333 21.333v85.333c0 11.782-9.553 21.333-21.333 21.333h-21.333zM618.667 714.667v-85.333c0-11.782 9.553-21.333 21.333-21.333h21.333c11.78 0 21.333 9.551 21.333 21.333v85.333c0 11.782-9.553 21.333-21.333 21.333h-21.333c-11.78 0-21.333-9.551-21.333-21.333zM448 554.667c-23.564 0-42.667-19.103-42.667-42.667v-213.333c0-23.565 19.103-42.667 42.667-42.667h256c23.565 0 42.667 19.102 42.667 42.667v213.333c0 23.564-19.102 42.667-42.667 42.667h-256zM682.667 426.667h21.333v-42.667h-42.667v21.333c0 11.78 9.553 21.333 21.333 21.333zM704 490.667v-21.333h-42.667c-23.565 0-42.667-19.102-42.667-42.667v-128h-42.667v213.333h106.667c11.78 0 21.333-9.553 21.333-21.333zM682.667 298.667h-21.333v42.667h42.667v-21.333c0-11.78-9.553-21.333-21.333-21.333zM448 341.333h85.333v-42.667h-64c-11.78 0-21.333 9.553-21.333 21.333v21.333zM533.333 384h-85.333v42.667h85.333v-42.667zM533.333 469.333h-85.333v21.333c0 11.78 9.553 21.333 21.333 21.333h64v-42.667zM634.825 874.667h-293.491c-35.346 0-64-28.654-64-64v-64h-64c-35.346 0-64-28.654-64-64v-597.333c0-35.345 28.654-64 64-64h469.333c35.345 0 64 28.655 64 64v64h64c35.345 0 64 28.655 64 64v421.49c0 16.974-6.741 33.252-18.743 45.255l-175.846 175.843c-12.002 12.002-28.279 18.745-45.252 18.745zM682.667 106.667c0-11.78-9.553-21.333-21.333-21.333h-426.667c-11.782 0-21.333 9.553-21.333 21.333v554.667c0 11.782 9.551 21.333 21.333 21.333h42.667v-469.333c0-35.345 28.654-64 64-64h341.333v-42.667zM810.667 234.667c0-11.78-9.553-21.333-21.333-21.333h-426.667c-11.782 0-21.333 9.553-21.333 21.333v554.667c0 11.782 9.551 21.333 21.333 21.333h271.249c5.833 0 11.409-2.388 15.437-6.607l155.418-162.897c3.785-3.968 5.897-9.242 5.897-14.726v-391.769z" />
<glyph unicode="&#xe90f;" glyph-name="AdminSupport" d="M192 597.333c-3.623 0-7.205-0.181-10.735-0.534 8.216 18.261 17.965 35.889 29.189 52.687 39.85 59.64 96.491 106.125 162.761 133.573 66.27 27.45 139.187 34.633 209.54 20.638 70.349-13.995 134.972-48.534 185.69-99.255 31.245-31.243 56.35-67.76 74.291-107.642-3.529 0.353-7.113 0.534-10.735 0.534-58.91 0-106.667-47.756-106.667-106.667v-85.333c0-58.91 47.757-106.667 106.667-106.667 3.622 0 7.202 0.179 10.735 0.533-27.878-61.961-72.636-114.918-129.246-152.747-41.788-27.917-88.713-46.72-137.737-55.471-2.859 32.7-30.31 58.351-63.753 58.351-35.345 0-64-28.655-64-64s28.655-64 64-64c84.386 0 166.878 25.024 237.043 71.906s113.711 105.045 157.146 191.484c9.843 19.584 18.923 47.057 24 63.612 2.914 9.515 5.009 19.251 6.221 29.129 1.105 9.007 2.257 20.22 2.257 27.87v85.333c0 14.737-1.677 25.442-4.267 41.54-15.428 95.907-61.265 158.054-120.7 217.49-59.669 59.672-135.697 100.307-218.462 116.771s-168.555 8.013-246.517-24.281c-77.964-32.292-144.599-86.979-191.482-157.143-31.094-46.537-57.002-87.72-67.64-151.71-2.746-16.521-4.267-27.93-4.267-42.667v-85.333c0-58.91 47.756-106.667 106.667-106.667s106.667 47.757 106.667 106.667v85.333c0 58.91-47.756 106.667-106.667 106.667zM149.333 490.667c0 23.565 19.103 42.667 42.667 42.667s42.667-19.102 42.667-42.667v-85.333c0-23.565-19.103-42.667-42.667-42.667s-42.667 19.102-42.667 42.667v85.333zM832 533.333c23.565 0 42.667-19.102 42.667-42.667v-85.333c0-23.565-19.102-42.667-42.667-42.667s-42.667 19.102-42.667 42.667v85.333c0 23.565 19.102 42.667 42.667 42.667z" />
<glyph unicode="&#xe910;" glyph-name="AdminThingDescription" d="M124.377 870.001c1.883-0.145 3.756-0.456 5.594-0.933l565.082-136.399c12.113-2.924 21.427-12.612 23.868-24.831l46.861-234.302c5.525 4.173 12.288 6.464 19.285 6.464 8.486 0 16.627-3.371 22.63-9.374l117.026-117.026c12.497-12.497 12.497-32.759 0-45.257l-273.067-273.067c-12.497-12.497-32.759-12.497-45.252 0l-117.030 117.030c-6.003 5.999-9.374 14.14-9.374 22.626 0 7.002 2.295 13.764 6.464 19.285l-234.3 46.861c-12.218 2.445-21.907 11.759-24.831 23.872l-136.399 565.079c-0.477 1.839-0.788 3.711-0.933 5.594-0.692 8.992 2.4 18.22 9.278 25.098 5.666 5.666 12.928 8.763 20.34 9.291 1.577 0.113 3.167 0.11 4.758-0.014zM395.205 519.543l-215.506 215.505 105.053-435.217 255.741-51.149 170.829 170.825-51.149 255.743-435.219 105.053 215.507-215.506c1.583-1.584 2.965-3.293 4.147-5.094 8.798 3.438 18.372 5.325 28.39 5.325 43.085 0 78.016-34.928 78.016-78.017s-34.931-78.020-78.016-78.020c-43.089 0-78.021 34.931-78.021 78.020 0 10.014 1.887 19.584 5.324 28.382-1.802 1.182-3.511 2.564-5.096 4.151zM557.257 174.933l71.774-71.774 227.81 227.814-71.774 71.774-227.81-227.814z" />
<glyph unicode="&#xe911;" glyph-name="AEP" d="M652.54 874.667c0 0 52.966 0 52.966-48.384h-396.67c0 48.384 52.828 48.384 52.828 48.384h290.875zM747.503 786.231c0 0 52.966 0 52.966-48.384h-608.493c0 48.384 52.829 48.384 52.829 48.384h502.698zM896 627.295v-168.449c0-11.785-9.553-21.333-21.333-21.333h-253.871v-241.89c0-11.785-9.549-21.333-21.333-21.333h-17.101v-79.433h115.217c19.264 0 38.434-18.423 38.434-36.762 0-18.423-19.26-36.762-38.434-36.762h-313.638c-19.263 0-38.436 18.423-38.436 36.762 0 18.423 19.262 36.762 38.436 36.762h115.217v79.433h-294.375c-38.346 0-76.782 30.622-76.782 73.438v379.568c0 42.819 38.347 73.44 76.782 73.44h614.435c38.349 0 76.783-30.621 76.783-73.44zM822.955 403.597c7.654 0 11.439-9.301 5.956-14.647l-51.695-50.377 85.158-82.918c3.298-3.209 3.456-8.461 0.354-11.861l-37.227-40.832c-3.179-3.482-8.576-3.729-12.058-0.555l-90.859 82.846-52.233-50.906c-5.406-5.269-14.49-1.438-14.49 6.11v163.14h167.091zM482.142 462.345l-21.79 22.153v6.767c0.316 24.307-19.895 44.611-45.163 44.919-25.266 0.615-46.11-19.075-46.426-43.383-0.169-3.605 0.38-7.121 0.93-10.645 0.482-3.093 0.965-6.187 0.965-9.353l-53.374-50.146c-4.737 2.15-11.37 4.612-18.318 4.612-25.266 0.619-46.11-19.072-46.426-43.379s19.897-44.612 45.163-44.919c25.266-0.614 46.11 19.076 46.426 43.379 0 8.926-2.211 17.847-8.843 26.769l50.531 47.996c8.843-6.771 18.002-9.229 27.16-9.229 13.897 0 27.794 6.46 36.95 15.074l15.791-15.693c-4.736-6.46-7.262-12.919-7.262-21.841-0.316-24.307 19.895-44.612 45.163-44.919 25.263-0.614 46.11 19.076 46.426 43.379 0 6.485-2.031 12.689-4.147 19.153l-0.273 0.845 53.372 50.15c0.956-0.294 1.903-0.597 2.85-0.9 5.926-1.886 11.686-3.716 17.677-3.716 25.267-0.614 46.11 19.076 46.426 43.383 0.316 24.304-19.895 44.61-45.163 44.917-25.263 0.615-46.11-19.075-46.426-43.381 0-8.922 2.214-17.844 8.845-26.765l-50.846-47.996c-8.845 6.767-18.005 9.229-27.162 9.229-9.161 0-16.107-2.155-23.057-6.46z" />
<glyph unicode="&#xe912;" glyph-name="Alarm" d="M512 874.667c-235.642 0-426.667-191.025-426.667-426.667 0-235.639 191.025-426.667 426.667-426.667 235.639 0 426.667 191.027 426.667 426.667 0 113.159-44.954 221.683-124.966 301.699-80.017 80.015-188.54 124.968-301.7 124.968zM512 181.333c-23.565 0-42.667 19.102-42.667 42.667s19.102 42.667 42.667 42.667c23.565 0 42.667-19.102 42.667-42.667s-19.102-42.667-42.667-42.667zM554.667 394.667c0-23.565-19.102-42.667-42.667-42.667s-42.667 19.102-42.667 42.667l-21.333 256c0 35.346 28.655 64 64 64s64-28.654 64-64l-21.333-256z" />
<glyph unicode="&#xe913;" glyph-name="AlarmAction" d="M96.678 219.345l342.708 532.394c32.26 50.125 112.973 50.125 145.233 0l342.703-532.39c32.247-50.091-8.094-112.683-72.614-112.683h-685.415c-64.523 0-104.861 62.592-72.614 112.678zM469.402 662.346c-12.036-11.672-18.091-27.319-16.7-43.164l22.178-252.633c1.707-19.273 19.652-34.133 41.225-34.133s39.518 14.861 41.225 34.133l22.187 252.633c1.391 15.847-4.663 31.494-16.704 43.166s-28.971 18.309-46.707 18.309c-17.737-0.001-34.662-6.639-46.703-18.311zM460.019 264.956c-11.571-17.958-11.571-40.085 0-58.044 11.567-17.958 32.947-29.022 56.085-29.022 35.767 0 64.764 25.988 64.764 58.044s-28.996 58.044-64.764 58.044c-23.138 0-44.518-11.063-56.085-29.022z" />
<glyph unicode="&#xe914;" glyph-name="All" d="M450.005 149.333c-19.601 0-36.679 13.355-41.407 32.375l-12.611 50.739h-171.674l-12.611-50.739c-4.728-19.021-21.807-32.375-41.407-32.375h-70.102c-28.634 0-49.141 27.648-40.83 55.049l152.916 504.191c5.455 17.986 22.036 30.284 40.83 30.284h119.781c18.794 0 35.375-12.298 40.83-30.284l152.915-504.191c8.311-27.401-12.194-55.049-40.828-55.049h-75.802zM257.081 364.407h106.138l-51.288 209.931h-2.85l-52-209.931zM680.367 149.333c-23.565 0-42.667 19.102-42.667 42.667v512c0 23.564 19.102 42.667 42.667 42.667h56.422c23.561 0 42.667-19.103 42.667-42.667v-512c0-23.565-19.106-42.667-42.667-42.667h-56.422zM882.244 149.333c-23.565 0-42.667 19.102-42.667 42.667v512c0 23.564 19.102 42.667 42.667 42.667h56.422c23.565 0 42.667-19.103 42.667-42.667v-512c0-23.565-19.102-42.667-42.667-42.667h-56.422z" />
<glyph unicode="&#xe915;" glyph-name="AngleDown" d="M843.947 628.908c-16.593 16.262-43.145 16.262-59.733 0l-272.213-271.361-271.789 271.361c-16.928 14.497-42.163 13.522-57.923-2.237s-16.734-40.994-2.237-57.923l301.229-301.654c16.589-16.26 43.14-16.26 59.733 0l302.080 302.508c16.222 16.307 16.602 42.54 0.853 59.307z" />
<glyph unicode="&#xe916;" glyph-name="AngleLeft" d="M421.548 448l271.785 271.786c16.265 16.591 16.265 43.143 0 59.733-16.589 16.262-43.14 16.262-59.733 0l-302.932-301.653c-16.262-16.593-16.262-43.145 0-59.733l301.652-301.653c16.644-16.542 43.52-16.542 60.16 0 8.077 8.013 12.621 18.918 12.621 30.293s-4.544 22.281-12.621 30.293l-270.932 270.933z" />
<glyph unicode="&#xe917;" glyph-name="AngleRight" d="M693.333 477.867l-302.508 302.507c-16.591 16.262-43.143 16.262-59.733 0-16.262-16.591-16.262-43.143 0-59.733l271.361-272.64-271.361-271.36c-8.077-8.013-12.621-18.918-12.621-30.293s4.544-22.281 12.621-30.293c16.642-16.542 43.518-16.542 60.16 0l301.655 301.653c16.661 16.525 16.849 43.401 0.427 60.16z" />
<glyph unicode="&#xe918;" glyph-name="AngleUp" d="M843.951 326.827l-302.080 302.505c-16.593 16.262-43.145 16.262-59.733 0l-302.082-302.079c-12.176-10.428-17.48-26.799-13.731-42.385s15.919-27.759 31.505-31.505c15.586-3.75 31.959 1.553 42.386 13.73l271.788 271.359 271.787-271.785c16.589-16.265 43.14-16.265 59.733 0 16.661 16.525 16.849 43.401 0.427 60.16z" />
<glyph unicode="&#xe919;" glyph-name="Api" d="M310.449 763.763c15.709-15.61 15.709-40.919 0-56.53l-56.889-56.529c-15.709-15.61-41.179-15.61-56.889 0l-56.889 56.529c-15.709 15.61-15.709 40.919 0 56.53l56.889 56.529c15.709 15.61 41.179 15.61 56.889 0l56.889-56.529zM310.449 188.766c15.709-15.612 15.709-40.922 0-56.529l-56.889-56.529c-15.709-15.612-41.179-15.612-56.889 0l-56.889 56.529c-15.709 15.607-15.709 40.917 0 56.529l56.889 56.529c15.709 15.612 41.179 15.612 56.889 0l56.889-56.529zM884.22 137.088c15.71 15.612 15.71 40.917 0 56.529l-56.887 56.529c-15.71 15.612-41.182 15.612-56.892 0l-56.887-56.529c-15.71-15.612-15.71-40.917 0-56.529l56.887-56.529c15.71-15.612 41.182-15.612 56.892 0l56.887 56.529zM881.783 761.339c15.71-15.61 15.71-40.919 0-56.53l-56.892-56.529c-15.71-15.61-41.178-15.61-56.887 0l-56.887 56.529c-15.71 15.61-15.71 40.919 0 56.53l56.887 56.529c15.71 15.61 41.178 15.61 56.887 0l56.892-56.529zM793.967 594.173v-292.349c-18.005-0.004-36.011-5.982-50.748-17.929l-6.106-5.483-56.892-56.533c-15.718-15.616-23.573-36.092-23.565-56.563h-294.204c0.008 17.911-6.005 35.827-18.038 50.492l-5.526 6.071-56.889 56.533c-15.701 15.599-36.276 23.403-56.855 23.411v292.349c18.006 0.008 36.010 5.984 50.748 17.93l6.107 5.485 56.889 56.529c15.701 15.601 23.555 36.047 23.564 56.496h294.204c0.009-17.892 6.025-35.783 18.044-50.428l5.521-6.068 56.892-56.529c15.697-15.602 36.275-23.407 56.853-23.415zM637.564 495.245l-85.333 84.795c-21.995 21.854-56.738 23.311-80.435 4.371l-4.898-4.371-85.333-84.795c-21.993-21.854-23.459-56.38-4.399-79.927l4.399-4.868 85.333-84.791c21.995-21.854 56.738-23.313 80.435-4.373l4.898 4.373 85.333 84.791c21.995 21.854 23.458 56.384 4.399 79.927l-4.399 4.868z" />
<glyph unicode="&#xe91a;" glyph-name="Asset" d="M560.094 189.167v227.285l240.043 99.2v-204.373l-240.043-122.112zM512.094 732.527l288.043-109.867v-1.707l-288.043-119.040-288.086 119.040v1.707l288.086 109.867zM486.707 827.333l-312.022-119.040c-28.075-10.709-46.677-38.187-46.677-68.693v-343.595c0-27.776 15.445-53.12 39.765-65.493l312.022-158.72c20.309-10.411 44.117-10.411 64.384 0l312.064 158.72c24.448 12.373 39.765 37.845 39.765 65.493v343.595c0 30.507-18.603 57.856-46.677 68.523l-312.064 119.040c-16.171 6.443-34.176 6.443-50.56 0.171z" />
<glyph unicode="&#xe91b;" glyph-name="Altitude" d="M421.022 850.292c-61.833 0-112-50.167-112-112 0-47.412 65.848-131.863 96.564-168.678 8.133-9.747 22.74-9.747 30.872 0 30.716 36.815 96.563 121.266 96.563 168.678 0 61.833-50.167 112-112 112zM421.022 700.958c-20.65 0-37.333 16.684-37.333 37.333s16.683 37.333 37.333 37.333c20.65 0 37.333-16.683 37.333-37.333s-16.683-37.333-37.333-37.333zM544.7 340.535l-73.549-42.735-51.529 89.246-48.453-82.667-71.088 46.285 101.065 175.049c8.211 14.223 28.741 14.223 36.95 0l84.834-146.935-0.316-0.013 22.084-38.229zM592.691 345.481l48.631 84.233c8.213 14.221 28.74 14.221 36.954 0l203.226-352c8.213-14.221-2.052-32-18.475-32h-702.058c-16.422 0-26.686 17.779-18.475 32l135.469 234.641 78.905-51.465 16.263-10.842 65.013 32.124c1.122 0.55 2.428 0.585 3.58 0.090l50.991-21.952 0.222-0.265 74.082 41.6 52.668-91.183 0.41 0.021 52.378-90.722h99.247l-111.919 193.856-24.307-42.103-42.803 73.967zM567.424 131.046l-39.646 70.737-39.671-6.502c-0.922-0.154-1.869 0.004-2.692 0.439l-45.504 24.171-64.8-31.906c-1.241-0.614-2.702-0.585-3.919 0.077l-50.611 27.439-48.76-84.454h295.603z" />
<glyph unicode="&#xe91c;" glyph-name="Bar" d="M213.333 149.333h640c23.565 0 42.667-19.102 42.667-42.667s-19.102-42.667-42.667-42.667h-682.667c-23.564 0-42.667 19.102-42.667 42.667v682.667c0 23.564 19.103 42.667 42.667 42.667s42.667-19.103 42.667-42.667v-640zM682.667 661.333c0 23.564 19.102 42.667 42.667 42.667h85.333c23.565 0 42.667-19.103 42.667-42.667v-426.667c0-23.565-19.102-42.667-42.667-42.667h-85.333c-23.565 0-42.667 19.102-42.667 42.667v426.667zM512 618.667c-23.565 0-42.667-19.103-42.667-42.667v-341.333c0-23.565 19.102-42.667 42.667-42.667h85.333c23.565 0 42.667 19.102 42.667 42.667v341.333c0 23.564-19.102 42.667-42.667 42.667h-85.333zM298.667 533.333c-23.564 0-42.667-19.102-42.667-42.667v-256c0-23.565 19.103-42.667 42.667-42.667h85.333c23.564 0 42.667 19.102 42.667 42.667v256c0 23.565-19.103 42.667-42.667 42.667h-85.333z" />
<glyph unicode="&#xe91d;" glyph-name="BatchEdit" d="M805.214 823.402l82.099-81.621c5.568-5.536 8.606-13.086 8.687-20.887 0-7.801-3.204-15.267-8.772-20.803l-314.799-309.622c-3.712-3.605-8.269-6.208-13.333-7.548l-106.057-27.601c-2.53-0.585-4.979-0.922-7.509-0.922-7.509 0-14.848 2.935-20.419 8.222-3.654 3.469-6.349 7.812-7.827 12.617s-1.688 9.907-0.611 14.814l23.962 109.218c1.267 5.538 4.049 10.569 8.098 14.596l314.799 309.621c11.563 11.409 30.208 11.325 41.681-0.084zM484.595 424.273l51.891 13.508 287.966 283.28-40.329 40.097-287.718-282.946-11.81-53.939zM796.412 471.181c0 16.188 13.244 29.359 29.53 29.359 16.282 0 29.53-13.171 29.615-29.359v-253.333c0-16.192-13.248-29.359-29.53-29.359h-69.103v-95.13c0-16.188-13.248-29.359-29.53-29.359h-569.863c-16.284 0-29.531 13.171-29.531 29.359v495.010c0 16.19 13.247 29.36 29.531 29.36h69.102v113.329c0 16.19 13.247 29.36 29.531 29.36h211.019c16.286 0 29.53-13.17 29.53-29.36s-13.244-29.36-29.53-29.36h-181.488v-454.491h510.717v223.974zM187.062 122.637h510.713v65.852h-441.611c-16.284 0-29.531 13.167-29.531 29.359v341.077h-39.571v-436.288z" />
<glyph unicode="&#xe91e;" glyph-name="BatchUpload" d="M789.333 746.667h-554.667c-11.782 0-21.333 9.551-21.333 21.333 0 35.346 28.654 64 64 64h469.333c35.345 0 64-28.654 64-64 0-11.782-9.553-21.333-21.333-21.333zM206.507 704h610.987c43.26-0.233 78.272-35.246 78.507-78.507v-482.987c-0.235-43.26-35.247-78.272-78.507-78.507h-610.987c-43.261 0.235-78.273 35.247-78.507 78.507v482.987c0.233 43.261 35.246 78.273 78.507 78.507zM384 213.333h341.333c23.565 0 42.667 19.102 42.667 42.667s-19.102 42.667-42.667 42.667h-341.333v42.667c0 17.493-11.52 24.747-20.48 17.493l-100.693-89.173c-9.008-9.924-9.008-25.062 0-34.987l100.693-81.493c9.387-7.253 20.48 2.133 20.48 17.493v42.667zM782.507 490.667c7.194 9.135 7.194 22.012 0 31.147l-100.693 89.173c-8.96 7.253-20.48-2.133-20.48-17.493v-42.667h-362.667c-23.564 0-42.667-19.102-42.667-42.667s19.103-42.667 42.667-42.667h362.667v-42.667c0-17.493 11.52-24.747 20.48-17.493l100.693 85.333z" />
<glyph unicode="&#xe91f;" glyph-name="Bucket" d="M157.013 832c-6.906-0.331-13.396-3.396-18.038-8.519s-7.056-11.883-6.708-18.787c-0.192-1.559-0.192-3.135 0-4.693l103.68-704.853c1.478-17.041 15.341-30.357 32.427-31.147h495.36c12.783 0.388 23.241 10.3 24.32 23.040l103.253 713.387c2.935 14.212-5.943 28.188-20.053 31.573h-714.24zM587.947 303.36h-150.613l-42.667 240.213h228.267l-36.693-240.213h1.707z" />
<glyph unicode="&#xe920;" glyph-name="Camera" d="M810.667 533.333c-23.595 0-42.667 19.072-42.667 42.667s19.072 42.667 42.667 42.667c23.595 0 42.667-19.072 42.667-42.667s-19.072-42.667-42.667-42.667zM512 192c-117.845 0-213.333 95.488-213.333 213.333s95.488 213.333 213.333 213.333c117.845 0 213.333-95.488 213.333-213.333s-95.488-213.333-213.333-213.333zM853.333 704h-128v42.667c0 23.595-19.072 42.667-42.667 42.667h-341.333c-23.595 0-42.667-19.072-42.667-42.667v-42.667h-128c-46.933 0-85.333-38.4-85.333-85.333v-426.667c0-46.933 38.4-85.333 85.333-85.333h682.667c46.976 0 85.333 38.4 85.333 85.333v426.667c0 46.933-38.357 85.333-85.333 85.333z" />
<glyph unicode="&#xe921;" glyph-name="CaretDown" d="M183.040 581.12l290.987-329.387c18.231-20.326 49.207-22.767 70.4-5.547 2.057 1.63 3.917 3.49 5.547 5.547l291.413 329.387c12.437 14.569 15.168 35.081 6.972 52.395s-25.792 28.205-44.945 27.818h-582.827c-19.248 0.601-37.007-10.31-45.171-27.75s-5.167-38.067 7.625-52.463z" />
<glyph unicode="&#xe922;" glyph-name="CaretUp" d="M183.040 314.88l290.987 329.387c18.231 20.326 49.207 22.766 70.4 5.547 2.057-1.63 3.917-3.491 5.547-5.547l291.413-329.387c12.437-14.566 15.168-35.081 6.972-52.395s-25.792-28.207-44.945-27.819h-582.827c-19.248-0.602-37.007 10.308-45.171 27.75s-5.167 38.067 7.625 52.463z" />
<glyph unicode="&#xe923;" glyph-name="Certificate" d="M883.575 618.674h-178.573c-11.541 0-20.873 9.375-20.873 20.894v181.329c-0.064 0.384-0.098 0.832-0.098 1.28 0 5.408 4.382 9.823 9.813 9.823 0.192 0 0.354 0 0.542 0 10.807-0.064 20.553-4.448 27.682-11.519l161.506-161.682c7.066-7.104 11.443-16.895 11.507-27.71 0.098-0.512 0.162-1.12 0.162-1.76 0-5.888-4.766-10.655-10.645-10.655-0.35 0-0.704 0.032-1.054 0.064l0.030-0.064zM875.904 563.222h-201.587c-21.193 0-38.357 17.183-38.357 38.397v211.183c0 10.591-8.597 19.198-19.174 19.198h-298.31c-21.191 0-38.355-17.183-38.355-38.397v-157.427h11.507c7.799 2.112 16.716 3.36 25.954 3.424 27.84-0.128 53.026-11.519 71.181-29.854l5.114-5.12h6.808c34.934-9.471 61.912-36.349 71.436-70.522l0.162-0.704c0 0 0-6.399 2.142-7.265l5.111-5.534c17.869-18.334 28.864-43.452 28.864-71.13 0-9.152-1.216-18.014-3.452-26.432l0.158 0.704c0 0 0-6.396 0-7.262 0-0.862 0-7.68 0-7.68 2.078-7.646 3.26-16.444 3.26-25.502 0-27.58-10.995-52.634-28.83-70.938l0.034 0.034-5.116-5.538-2.142-7.262c-6.327-25.216-21.636-46.076-42.223-59.482l-0.384-0.226v-163.409c0-5.888 4.766-10.658 10.645-10.658h418.074c0.128 0 0.286 0 0.414 0 20.489 0 37.077 16.61 37.077 37.12 0 0.158 0 0.286 0 0.448v440.666c0 10.591-8.597 19.23-19.179 19.23-0.286 0-0.606 0-0.896-0.032l0.064-0.032zM443.354 438.656c0.798 2.88 1.28 6.144 1.28 9.566 0 10.082-4.062 19.234-10.645 25.856-13.232 9.984-22.054 25.152-23.428 42.462v0.192c-3.836 12.476-13.968 21.949-26.625 24.701l-0.224 0.032c-16.844 1.76-31.259 10.719-40.369 23.71l-0.128 0.192c-6.488 7.072-15.758 11.487-26.082 11.487-2.685 0-5.306-0.288-7.831-0.864l0.224 0.032c-6.808-3.232-14.799-5.12-23.237-5.12s-16.429 1.888-23.557 5.248l0.352-0.128c-2.877 0.832-6.169 1.312-9.589 1.312-9.94 0-18.922-4.096-25.347-10.719-9.205-13.151-23.652-22.11-40.241-23.87l-0.256-0.032c-12.625-3.424-22.342-13.313-25.506-25.789l-0.064-0.256c-1.374-17.502-10.228-32.704-23.301-42.56l-0.16-0.094c-6.584-6.622-10.644-15.774-10.644-25.856 0-3.388 0.448-6.686 1.343-9.822l-0.064 0.256c3.228-7.040 5.114-15.232 5.114-23.902s-1.886-16.862-5.242-24.252l0.16 0.35c-0.863-2.944-1.374-6.302-1.374-9.822 0-10.014 4.123-19.102 10.739-25.6 13.233-9.95 22.054-25.148 23.429-42.458v-0.192c3.228-12.736 12.945-22.592 25.315-25.95l0.256-0.064c9.621-1.472 18.251-4.77 25.858-9.536l-0.288 0.158v-213.325l76.711 63.996 75.016-63.996v217.583c5.274 2.432 11.507 4.608 17.995 6.238l0.767 0.162c12.625 3.422 22.342 13.308 25.506 25.788l0.064 0.256c1.374 17.502 10.228 32.7 23.303 42.556l0.158 0.098c6.618 6.494 10.739 15.582 10.739 25.596 0 3.49-0.512 6.882-1.438 10.082l0.064-0.256c-2.654 6.43-4.22 13.918-4.22 21.79 0 8.99 2.014 17.468 5.628 25.084l-0.162-0.32zM286.097 337.545c-0.384 0-0.831 0-1.278 0-44.236 0-80.131 35.9-80.131 80.218s35.862 80.218 80.131 80.218c44.236 0 80.099-35.9 80.13-80.183 0-0.256 0-0.546 0-0.866 0-43.678-35.255-79.095-78.82-79.351l-0.032-0.034z" />
<glyph unicode="&#xe924;" glyph-name="Chart" d="M213.333 149.333h640c23.552 0 42.667-19.072 42.667-42.667s-19.115-42.667-42.667-42.667h-682.667c-23.552 0-42.667 19.072-42.667 42.667v682.667c0 23.595 19.115 42.667 42.667 42.667s42.667-19.072 42.667-42.667v-640zM469.333 661.333c0-23.595-19.115-42.667-42.667-42.667s-42.667 19.072-42.667 42.667c0 23.595 19.115 42.667 42.667 42.667s42.667-19.072 42.667-42.667zM341.333 234.667c23.552 0 42.667 19.072 42.667 42.667s-19.115 42.667-42.667 42.667c-23.552 0-42.667-19.072-42.667-42.667s19.115-42.667 42.667-42.667zM597.333 448c0-23.595-19.115-42.667-42.667-42.667s-42.667 19.072-42.667 42.667c0 23.595 19.115 42.667 42.667 42.667s42.667-19.072 42.667-42.667zM682.667 234.667c23.552 0 42.667 19.072 42.667 42.667s-19.115 42.667-42.667 42.667c-23.552 0-42.667-19.072-42.667-42.667s19.115-42.667 42.667-42.667zM810.667 661.333c0-23.595-19.115-42.667-42.667-42.667s-42.667 19.072-42.667 42.667c0 23.595 19.115 42.667 42.667 42.667s42.667-19.072 42.667-42.667z" />
<glyph unicode="&#xe925;" glyph-name="Close" d="M823.087 197.252c16.661-16.661 16.661-43.674 0-60.339-16.666-16.661-43.678-16.661-60.339 0l-250.786 250.786-250.785-250.786c-16.662-16.661-43.677-16.661-60.34 0-16.663 16.666-16.663 43.678 0 60.339l250.785 250.786-250.787 250.787c-16.663 16.662-16.663 43.677 0 60.34s43.677 16.663 60.34 0l250.787-250.787 250.786 250.787c16.661 16.663 43.678 16.663 60.339 0s16.661-43.677 0-60.34l-250.786-250.787 250.786-250.786z" />
<glyph unicode="&#xe926;" glyph-name="CloseCircle" d="M662.839 357.5c16.683-16.683 16.683-43.648 0-60.331s-43.648-16.683-60.331 0l-90.496 90.496-90.498-90.496c-16.683-16.683-43.691-16.683-60.331 0-16.683 16.683-16.683 43.648 0 60.331l90.498 90.496-90.498 90.497c-16.683 16.683-16.683 43.691 0 60.331 16.64 16.683 43.648 16.683 60.331 0l90.498-90.497 90.496 90.497c16.683 16.683 43.648 16.683 60.331 0 16.683-16.64 16.683-43.648 0-60.331l-90.496-90.497 90.496-90.496zM813.709 749.693c-166.613 166.656-436.78 166.656-603.394 0-166.656-166.613-166.656-436.78 0-603.393 166.613-166.613 436.78-166.613 603.394 0s166.613 436.78 0 603.393z" />
<glyph unicode="&#xe927;" glyph-name="Color-Picker" d="M757.577 841.342c44.433 44.433 116.471 44.433 160.905 0s44.433-116.473 0-160.906l-165.867-165.868 41.404-41.399c22.217-22.217 22.217-58.236 0-80.452s-58.24-22.217-80.457 0l-40.563 40.563-393.434-393.438c-44.433-44.433-116.473-44.433-160.906 0s-44.433 116.476 0 160.909l393.436 393.434-39.889 39.889c-22.217 22.217-22.217 58.237 0 80.453s58.236 22.217 80.452 0l39.053-39.052 165.867 165.866zM552.32 553.958l-393.435-393.434c-22.217-22.217-22.217-58.24 0-80.457s58.237-22.217 80.453 0l393.435 393.438-80.452 80.452z" />
<glyph unicode="&#xe928;" glyph-name="Column" d="M810.667 832h-597.333c-47.128 0-85.333-38.205-85.333-85.333v-597.333c0-47.13 38.205-85.333 85.333-85.333h597.333c47.13 0 85.333 38.204 85.333 85.333v597.333c0 47.128-38.204 85.333-85.333 85.333zM469.333 170.667c0-11.78-9.553-21.333-21.333-21.333h-213.333c-11.687 0.226-21.106 9.647-21.333 21.333v469.333c0 11.782 9.551 21.333 21.333 21.333h213.333c11.78 0 21.333-9.551 21.333-21.333v-469.333zM789.333 149.333h-213.333c-11.686 0.226-21.107 9.647-21.333 21.333v469.333c0 11.782 9.553 21.333 21.333 21.333h213.333c11.78 0 21.333-9.551 21.333-21.333v-469.333c0-11.78-9.553-21.333-21.333-21.333z" />
<glyph unicode="&#xe929;" glyph-name="Command" d="M874.658 704c11.776 0 21.342-9.536 21.342-21.344v-533.344c0-47.134-38.208-85.342-85.342-85.342h-597.345c-47.136 0-85.344 38.208-85.344 85.342v533.344c0 11.776 9.536 21.344 21.344 21.344h725.345zM725.346 277.342h-170.658c-0.768 0.064-1.664 0.064-2.56 0.064-23.616 0-42.752-19.132-42.752-42.748 0-22.724 17.698-41.28 40.064-42.658h175.906c23.552 0 42.654 19.106 42.654 42.658s-19.102 42.684-42.654 42.684zM267.937 564.064c-7.36-7.2-11.936-17.248-11.936-28.352 0-9.312 3.2-17.858 8.576-24.642l-0.064 0.098 3.424-3.84 128-123.298-128-123.294-3.424-3.84c-5.312-6.686-8.512-15.232-8.512-24.542 0-11.106 4.576-21.154 11.904-28.356 7.616-7.232 17.984-11.708 29.344-11.708 9.504 0 18.272 3.102 25.376 8.35l-0.128-0.098 3.84 3.426 148.897 146.334c9.28 8.384 15.104 20.484 15.104 33.92 0 13.44-5.824 25.54-15.074 33.89l-3.87 3.87-145.057 142.082c-7.616 7.168-17.92 11.584-29.216 11.584s-21.6-4.416-29.248-11.616l0.064 0.032zM853.346 832c23.552 0 42.654-19.104 42.654-42.656v-21.344c0-11.776-9.536-21.344-21.342-21.344h-725.345c-11.776 0-21.344 9.536-21.344 21.344v21.344c0 23.552 19.104 42.656 42.656 42.656h682.721z" />
<glyph unicode="&#xe92a;" glyph-name="Company" d="M590.507 823.892l-426.668-71.253c-20.867-3.38-36.112-21.53-35.84-42.667v-603.306c0-23.565 19.103-42.667 42.667-42.667h426.668c23.561 0 42.667 19.102 42.667 42.667v674.986c0.034 12.53-5.44 24.443-14.972 32.577-9.527 8.134-22.153 11.668-34.522 9.663zM341.332 256c0-11.785-9.551-21.333-21.333-21.333h-85.333c-11.782 0-21.333 9.549-21.333 21.333v85.333c0 11.78 9.551 21.333 21.333 21.333h85.333c11.782 0 21.333-9.553 21.333-21.333v-85.333zM341.332 512c0-11.785-9.551-21.333-21.333-21.333h-85.333c-11.782 0-21.333 9.549-21.333 21.333v85.332c0 11.782 9.551 21.333 21.333 21.333h85.333c11.782 0 21.333-9.551 21.333-21.333v-85.332zM554.667 256c0-11.785-9.553-21.333-21.333-21.333h-85.333c-11.785 0-21.335 9.549-21.335 21.333v85.333c0 11.78 9.551 21.333 21.335 21.333h85.333c11.78 0 21.333-9.553 21.333-21.333v-85.333zM554.667 512c0-11.785-9.553-21.333-21.333-21.333h-85.333c-11.785 0-21.335 9.549-21.335 21.333v85.332c0 11.782 9.551 21.333 21.335 21.333h85.333c11.78 0 21.333-9.551 21.333-21.333v-85.332zM884.049 496.64l-128 64c-6.673 3.193-14.511 2.776-20.809-1.106s-10.193-10.697-10.338-18.094v-456.107c0-11.78 9.553-21.333 21.333-21.333h128c11.785 0 21.333 9.553 21.333 21.333v392.107c0 8.038-4.429 15.42-11.52 19.2z" />
<glyph unicode="&#xe92b;" glyph-name="Connectivity" d="M840.96 631.040l-231.253 231.253c-7.949 7.882-18.675 12.326-29.867 12.373h-323.84c-47.128 0-85.333-38.205-85.333-85.333v-682.667c0-47.13 38.205-85.333 85.333-85.333h512c47.13 0 85.333 38.204 85.333 85.333v494.507c-0.047 11.193-4.493 21.92-12.373 29.867zM384 113.92c-0.212-3.917-3.339-7.040-7.253-7.253h-70.827c-3.915 0.213-7.041 3.337-7.253 7.253v70.827c0.212 3.917 3.339 7.040 7.253 7.253h70.827c3.915-0.213 7.041-3.337 7.253-7.253v-70.827zM554.667 113.92c-0.213-3.917-3.337-7.040-7.253-7.253h-70.827c-3.917 0.213-7.040 3.337-7.253 7.253v70.827c0.213 3.917 3.337 7.040 7.253 7.253h70.827c3.917-0.213 7.040-3.337 7.253-7.253v-70.827zM725.333 113.92c-0.213-3.917-3.337-7.040-7.253-7.253h-70.827c-3.917 0.213-7.040 3.337-7.253 7.253v70.827c0.213 3.917 3.337 7.040 7.253 7.253h70.827c3.917-0.213 7.040-3.337 7.253-7.253v-70.827zM725.333 293.12c-0.226-8.623-7.164-15.561-15.787-15.787h-395.093c-8.624 0.226-15.563 7.164-15.787 15.787v53.76c0.224 8.623 7.162 15.561 15.787 15.787h395.093c8.623-0.226 15.561-7.164 15.787-15.787v-53.76z" />
<glyph unicode="&#xe92c;" glyph-name="Console" d="M565.372 469.333l-0.081-63.957 131.597-0.043c18.466 0 36.429-5.99 51.2-17.067l113.779-85.333c21.487-16.115 34.133-41.408 34.133-68.267v-85.333c0-47.13-38.204-85.333-85.333-85.333h-597.333c-47.128 0-85.333 38.204-85.333 85.333v85.333c0 26.859 12.646 52.151 34.133 68.267l113.778 85.333c14.771 11.076 32.736 17.067 51.2 17.067l131.513 0.043 0.034 63.949c16.781-5.252 34.714-8.098 53.342-8.098 18.641 0 36.582 2.846 53.372 8.107zM640 192c-23.565 0-42.667-19.102-42.667-42.667s19.102-42.667 42.667-42.667c23.565 0 42.667 19.102 42.667 42.667s-19.102 42.667-42.667 42.667zM768 192c-23.565 0-42.667-19.102-42.667-42.667s19.102-42.667 42.667-42.667c23.565 0 42.667 19.102 42.667 42.667s-19.102 42.667-42.667 42.667zM565.329 358.797l0.004-6.797c0-29.457-23.876-53.333-53.333-53.333s-53.333 23.876-53.333 53.333l-0.038 6.793c-44.045-6.746-74.628-21.577-74.628-38.793 0-23.565 57.306-42.667 128-42.667s128 19.102 128 42.667c0 17.22-30.605 32.055-74.671 38.797zM512 832c94.255 0 170.667-76.41 170.667-170.667s-76.412-170.667-170.667-170.667c-94.257 0-170.667 76.41-170.667 170.667s76.41 170.667 170.667 170.667z" />
<glyph unicode="&#xe92d;" glyph-name="Copy" d="M832 704h-78.507c-39.019 0.233-70.592 31.807-70.827 70.827v78.507c0 11.782-9.553 21.333-21.333 21.333h-291.84c-39.020-0.233-70.594-31.807-70.827-70.827v-569.173c0-47.13 38.205-85.333 85.333-85.333h398.507c39.019 0.235 70.592 31.808 70.827 70.827v462.507c0 11.782-9.553 21.333-21.333 21.333zM256 182.187v564.48h-14.507c-39.020-0.233-70.594-31.807-70.827-70.827v-569.173c0-47.13 38.205-85.333 85.333-85.333h398.507c39.019 0.235 70.592 31.808 70.827 70.827v14.507h-393.387c-41.778 0-75.712 33.741-75.947 75.52zM725.333 768v106.667c70.694 0 128-57.308 128-128h-106.667c-11.686 0.227-21.107 9.647-21.333 21.333z" />
<glyph unicode="&#xe92e;" glyph-name="Correct" d="M512 874.667c-235.642 0-426.667-191.025-426.667-426.667 0-235.639 191.025-426.667 426.667-426.667 235.639 0 426.667 191.027 426.667 426.667 0 113.159-44.954 221.683-124.966 301.699-80.017 80.015-188.54 124.968-301.7 124.968zM783.787 526.507l-302.080-302.507c-16.589-16.26-43.145-16.26-59.733 0l-181.333 181.333c-14.497 16.93-13.522 42.163 2.237 57.924 15.76 15.757 40.994 16.734 57.923 2.236l151.040-150.613 273.493 271.787c16.589 16.262 43.145 16.262 59.733 0 16.196-16.992 15.62-43.873-1.28-60.16z" />
<glyph unicode="&#xe92f;" glyph-name="Dashboard" d="M523.793 789.173c-3.486 0.096-7.586 0.16-11.712 0.16-235.699 0-426.748-190.989-426.748-426.543 0-87.241 26.182-168.337 71.151-235.904l-0.992 1.566c9.122-13.214 24.165-21.786 41.257-21.786 0.512 0 0.992 0 1.504 0.030h628.132c0.418 0 0.93-0.030 1.442-0.030 17.058 0 32.137 8.542 41.131 21.594l0.094 0.162c43.627 65.485 69.615 145.946 69.615 232.482 0 2.56-0.034 5.086-0.064 7.612v-0.384c-5.632 228.004-187.302 411.796-413.978 420.977l-0.832 0.064zM511.855 685.073c21.542-0.32 39.561-15.132 44.745-35.063l0.064-0.32c-1.886-2.815-3.614-6.046-4.992-9.469l-0.128-0.352-13.666-42.644c-7.202-5.343-16.196-8.638-25.958-8.958h-0.064c-24.388 2.368-43.273 22.778-43.273 47.572s18.918 45.172 43.081 47.539l0.192 0.032v1.664zM227.22 258.53c-26.15 0-47.37 21.21-47.37 47.347s21.221 47.347 47.37 47.347c26.15 0 47.37-21.21 47.37-47.347s-21.22-47.347-47.37-47.347zM298.467 495.266c-26.15 0-47.37 21.21-47.37 47.349 0 26.137 21.22 47.347 47.37 47.347s47.37-21.21 47.37-47.347c0-26.139-21.221-47.349-47.37-47.349zM664.209 602.759l-90.901-272.566c20.292-17.438 33.097-43.029 33.289-71.629 0-0.128 0-0.32 0-0.482 0-17.498-4.928-33.847-13.444-47.731l0.226 0.384h-163.012c-8.193 13.662-13.090 30.135-13.218 47.731 0.16 50.001 39.206 90.854 88.499 93.862h0.256l91.315 272.568c4.77 14.013 17.826 23.93 33.19 23.93 3.362 0 6.626-0.48 9.732-1.376l-0.256 0.064c15.074-4.479 25.86-18.171 25.86-34.423 0-3.711-0.576-7.262-1.6-10.621l0.064 0.288zM685.973 517.436l23.044 69.103c4.77 1.92 10.308 3.167 16.098 3.423h0.098c26.15 0 47.369-21.21 47.369-47.347 0-26.139-21.218-47.349-47.369-47.349-16.61 0.226-31.113 9.152-39.147 22.396l-0.128 0.192 0.034-0.418zM796.493 258.116c-26.15 0-47.369 21.21-47.369 47.347 0 26.133 21.218 47.347 47.369 47.347s47.369-21.214 47.369-47.347c0-26.138-21.218-47.347-47.369-47.347z" />
<glyph unicode="&#xe930;" glyph-name="DataFix" d="M614.383 106.667h-0.124c-2.202 0.013-4.382 0.461-6.413 1.318-2.027 0.862-3.866 2.112-5.41 3.686-2.935 2.85-4.732 6.677-5.052 10.756-0.32 4.083 0.862 8.137 3.319 11.413l74.116 102.11-55.565 55.573c-2.662 2.654-4.369 6.114-4.855 9.839-0.491 3.725 0.273 7.509 2.163 10.756 6.084 8.67 14.263 15.654 23.782 20.297 9.391 4.574 19.703 6.938 30.148 6.912 7.838 0 15.62-1.28 23.040-3.793l2.846-0.29c2.569-0.183 4.843-0.439 6.976-0.781 17.493 1.122 33.971 8.589 46.349 21.001 13.495 9.553 22.801 23.927 25.988 40.154 0 2.577 0 5.291-0.107 7.851-1.685 5.687-1.933 11.703-0.717 17.51 1.212 5.807 3.853 11.221 7.676 15.757 3.529 3.584 7.735 6.426 12.378 8.358 4.638 1.933 9.617 2.923 14.643 2.906 8.764-0.009 17.254-3.042 24.038-8.589l0.87-0.862c8.393-8.192 92.113-91.968 92.919-92.774 3.584-3.563 6.426-7.799 8.363-12.467 1.937-4.672 2.923-9.677 2.91-14.733 0-5.060-1.007-10.074-2.961-14.741-1.95-4.668-4.813-8.905-8.418-12.459-5.696-5.030-13.090-7.714-20.689-7.501-4.506 0.102-8.994 0.55-13.431 1.34-2.325 0.132-4.651 0.188-6.98 0.158h-0.661c-6.827-0.858-13.406-3.081-19.358-6.532-5.948-3.452-11.145-8.060-15.279-13.555-14.285-14.31-23.556-32.862-26.423-52.877 0.405-3.49 1.135-9.481 1.267-10.278 4.365-13.325 4.237-27.716-0.358-40.964s-13.41-24.627-25.088-32.388c-2.688-1.664-5.79-2.543-8.951-2.543-2.236-0.004-4.45 0.431-6.519 1.284-2.065 0.853-3.942 2.112-5.521 3.695l-54.916 54.989-100.113-76.105c-2.82-2.21-6.298-3.418-9.882-3.43zM170.667 746.667c0 23.564-19.103 42.667-42.667 42.667s-42.667-19.103-42.667-42.667v-597.333c0-23.565 19.103-42.667 42.667-42.667h432.363c-3.401 4.937-5.696 10.428-5.696 17.067 0 12.8 4.267 25.6 8.533 34.133l24.653 34.133h-417.186v554.667zM682.667 378.957c-6.025 0.777-12.233 0.777-17.067 0.777-17.067 0-34.133 0-46.933-8.533-8.064-4.032-15.177-8.064-21.333-12.996v217.796c0 23.564 19.102 42.667 42.667 42.667s42.667-19.103 42.667-42.667v-197.043zM298.667 533.333c23.564 0 42.667-19.102 42.667-42.667v-170.667c0-23.565-19.102-42.667-42.667-42.667s-42.667 19.102-42.667 42.667v170.667c0 23.565 19.103 42.667 42.667 42.667zM512 661.333c0 23.564-19.102 42.667-42.667 42.667s-42.667-19.103-42.667-42.667v-341.333c0-23.565 19.102-42.667 42.667-42.667s42.667 19.102 42.667 42.667v341.333z" />
<glyph unicode="&#xe931;" glyph-name="Date" d="M810.667 746.667h-85.333v42.667c0 23.564-19.102 42.667-42.667 42.667s-42.667-19.103-42.667-42.667v-42.667h-256v42.667c0 23.564-19.103 42.667-42.667 42.667s-42.667-19.103-42.667-42.667v-42.667h-85.333c-47.128 0-85.333-38.205-85.333-85.333v-512c0-47.13 38.205-85.333 85.333-85.333h597.333c47.13 0 85.333 38.204 85.333 85.333v512c0 47.128-38.204 85.333-85.333 85.333zM298.667 170.667c0-11.78-9.551-21.333-21.333-21.333h-42.667c-11.782 0-21.333 9.553-21.333 21.333v42.667c0 11.78 9.551 21.333 21.333 21.333h42.667c11.782 0 21.333-9.553 21.333-21.333v-42.667zM469.333 170.667c0-11.78-9.553-21.333-21.333-21.333h-42.667c-11.782 0-21.333 9.553-21.333 21.333v42.667c0 11.78 9.551 21.333 21.333 21.333h42.667c11.78 0 21.333-9.553 21.333-21.333v-42.667zM469.333 341.333c0-11.78-9.553-21.333-21.333-21.333h-42.667c-11.782 0-21.333 9.553-21.333 21.333v42.667c0 11.78 9.551 21.333 21.333 21.333h42.667c11.78 0 21.333-9.553 21.333-21.333v-42.667zM640 170.667c0-11.78-9.553-21.333-21.333-21.333h-42.667c-11.78 0-21.333 9.553-21.333 21.333v42.667c0 11.78 9.553 21.333 21.333 21.333h42.667c11.78 0 21.333-9.553 21.333-21.333v-42.667zM640 341.333c0-11.78-9.553-21.333-21.333-21.333h-42.667c-11.78 0-21.333 9.553-21.333 21.333v42.667c0 11.78 9.553 21.333 21.333 21.333h42.667c11.78 0 21.333-9.553 21.333-21.333v-42.667zM810.667 341.333c0-11.78-9.553-21.333-21.333-21.333h-42.667c-11.78 0-21.333 9.553-21.333 21.333v42.667c0 11.78 9.553 21.333 21.333 21.333h42.667c11.78 0 21.333-9.553 21.333-21.333v-42.667zM810.667 512c0-11.78-9.553-21.333-21.333-21.333h-554.667c-11.782 0-21.333 9.553-21.333 21.333v106.667c0 23.564 19.103 42.667 42.667 42.667h512c23.565 0 42.667-19.103 42.667-42.667v-106.667z" />
<glyph unicode="&#xe932;" glyph-name="Delete" d="M682.667 832h128c23.565 0 42.667-19.103 42.667-42.667s-19.102-42.667-42.667-42.667h-597.333c-23.564 0-42.667 19.103-42.667 42.667s19.103 42.667 42.667 42.667h128c0 23.564 19.103 42.667 42.667 42.667h256c23.565 0 42.667-19.103 42.667-42.667zM789.333 704h-554.667c-11.782 0-21.333-9.551-21.333-21.333v-576c0-47.13 38.205-85.333 85.333-85.333h426.667c47.13 0 85.333 38.204 85.333 85.333v576c0 11.782-9.553 21.333-21.333 21.333zM384 149.333c0-23.565-19.103-42.667-42.667-42.667s-42.667 19.102-42.667 42.667v426.667c0 23.564 19.103 42.667 42.667 42.667s42.667-19.103 42.667-42.667v-426.667zM512 106.667c-23.565 0-42.667 19.102-42.667 42.667v426.667c0 23.564 19.102 42.667 42.667 42.667s42.667-19.103 42.667-42.667v-426.667c0-23.565-19.102-42.667-42.667-42.667zM725.333 149.333c0-23.565-19.102-42.667-42.667-42.667s-42.667 19.102-42.667 42.667v426.667c0 23.564 19.102 42.667 42.667 42.667s42.667-19.103 42.667-42.667v-426.667z" />
<glyph unicode="&#xe933;" glyph-name="Detail" d="M512 874.667c-235.642 0-426.667-191.025-426.667-426.667 0-235.639 191.025-426.667 426.667-426.667 235.639 0 426.667 191.027 426.667 426.667 0 235.642-191.027 426.667-426.667 426.667zM362.667 448c0-35.345-28.654-64-64-64s-64 28.655-64 64c0 35.345 28.654 64 64 64s64-28.655 64-64zM576 448c0-35.345-28.655-64-64-64s-64 28.655-64 64c0 35.345 28.655 64 64 64s64-28.655 64-64zM725.333 384c-35.345 0-64 28.655-64 64s28.655 64 64 64c35.345 0 64-28.655 64-64s-28.655-64-64-64z" />
<glyph unicode="&#xe934;" glyph-name="Device" d="M896 469.333c-13.38 6.161-27.934 9.365-42.667 9.387h-682.667c-14.732-0.021-29.285-3.226-42.667-9.387l136.96 223.147c11.835 20.155 33.375 32.625 56.747 32.853h380.587c23.373-0.228 44.911-12.698 56.747-32.853l136.96-223.147zM156.587 426.667h710.827c37.325 1.937 69.188-26.679 71.253-64v-128c-2.065-37.321-33.929-65.937-71.253-64h-710.827c-37.326-1.937-69.188 26.679-71.253 64v128c2.065 37.321 33.927 65.937 71.253 64zM597.333 298.667c0-23.565 19.102-42.667 42.667-42.667s42.667 19.102 42.667 42.667c0 23.565-19.102 42.667-42.667 42.667s-42.667-19.102-42.667-42.667zM810.667 256c23.565 0 42.667 19.102 42.667 42.667s-19.102 42.667-42.667 42.667c-23.565 0-42.667-19.102-42.667-42.667s19.102-42.667 42.667-42.667z" />
<glyph unicode="&#xe935;" glyph-name="Download" d="M504.32 369.067l-113.065 121.6-86.613 91.307c-5.788 6.083-7.559 14.955-4.55 22.794s10.259 13.249 18.63 13.899h107.945v170.667c0 23.564 19.102 42.667 42.667 42.667h85.333c23.565 0 42.667-19.103 42.667-42.667v-170.667h107.947c7.484-1.458 13.653-6.724 16.273-13.882s1.301-15.164-3.473-21.105l-85.333-93.013-113.067-121.6c-2.010-2.086-4.783-3.264-7.68-3.264s-5.666 1.178-7.68 3.264zM213.333 320h597.333c47.13 0 85.333-38.204 85.333-85.333v-85.333c0-47.13-38.204-85.333-85.333-85.333h-597.333c-47.128 0-85.333 38.204-85.333 85.333v85.333c0 47.13 38.205 85.333 85.333 85.333zM554.667 192c0-23.565 19.102-42.667 42.667-42.667s42.667 19.102 42.667 42.667c0 23.565-19.102 42.667-42.667 42.667s-42.667-19.102-42.667-42.667zM768 149.333c23.565 0 42.667 19.102 42.667 42.667s-19.102 42.667-42.667 42.667c-23.565 0-42.667-19.102-42.667-42.667s19.102-42.667 42.667-42.667z" />
<glyph unicode="&#xe936;" glyph-name="Drag" d="M926.165 478.165l-128 128c-16.683 16.683-43.648 16.683-60.331 0s-16.683-43.648 0-60.331l52.139-52.138h-235.307v235.306l55.168-55.168c8.32-8.32 19.243-12.501 30.165-12.501s21.845 4.181 30.165 12.501c16.683 16.683 16.683 43.648 0 60.331l-128 128c-16.683 16.683-43.648 16.683-60.331 0l-128-128c-16.683-16.683-16.683-43.648 0-60.331s43.648-16.683 60.331 0l55.168 55.168v-235.306h-235.306l52.139 52.138c16.683 16.683 16.683 43.648 0 60.331s-43.648 16.683-60.331 0l-128-128c-16.683-16.683-16.683-43.648 0-60.331l128-128c8.32-8.32 19.243-12.501 30.165-12.501s21.845 4.181 30.165 12.501c16.683 16.683 16.683 43.648 0 60.331l-58.197 58.197h241.365v-241.365l-55.168 55.168c-16.683 16.683-43.648 16.683-60.331 0s-16.683-43.648 0-60.331l128-128c8.32-8.32 19.243-12.501 30.165-12.501s21.845 4.181 30.165 12.501l128 128c16.683 16.683 16.683 43.648 0 60.331s-43.648 16.683-60.331 0l-55.168-55.168v241.365h241.365l-58.197-58.197c-16.683-16.683-16.683-43.648 0-60.331 8.32-8.32 19.243-12.501 30.165-12.501s21.845 4.181 30.165 12.501l128 128c16.683 16.683 16.683 43.648 0 60.331z" />
<glyph unicode="&#xe937;" glyph-name="E" d="M213.333 746.667c0 23.564 19.103 42.667 42.667 42.667h502.127c23.565 0 42.667-19.103 42.667-42.667v-51.311c0-23.564-19.102-42.667-42.667-42.667h-382.832v-130.607h358.15c23.565 0 42.667-19.102 42.667-42.667v-45.197c0-23.565-19.102-42.667-42.667-42.667h-358.15v-139.947h392.705c23.565 0 42.667-19.102 42.667-42.667v-59.605c0-23.565-19.102-42.667-42.667-42.667h-512c-23.564 0-42.667 19.102-42.667 42.667v597.333z" />
<glyph unicode="&#xe938;" glyph-name="Edit" d="M889.6 704c-16.64-16.543-43.516-16.543-60.16 0l-60.587 61.013c-16.542 16.642-16.542 43.519 0 60.16 8.013 8.078 18.918 12.621 30.293 12.621 11.379 0 22.285-4.543 30.293-12.621l60.16-60.587c8.081-8.011 12.621-18.917 12.621-30.293s-4.54-22.282-12.621-30.293zM853.333 490.667c-23.565 0-42.667-19.102-42.667-42.667v-298.667h-597.333v597.333h298.667c23.565 0 42.667 19.103 42.667 42.667s-19.102 42.667-42.667 42.667h-341.333c-23.564 0-42.667-19.103-42.667-42.667v-682.667c0-23.565 19.103-42.667 42.667-42.667h682.667c23.565 0 42.667 19.102 42.667 42.667v341.333c0 23.565-19.102 42.667-42.667 42.667zM298.666 346.453v-90.453c-0.114-5.619 2.037-11.046 5.971-15.061 3.933-4.011 9.317-6.272 14.936-6.272h90.88c5.73 0.188 11.194 2.462 15.36 6.4l373.334 373.334c8.077 8.012 12.621 18.917 12.621 30.293s-4.544 22.282-12.621 30.293l-60.587 59.733c-16.644 16.543-43.52 16.543-60.16 0l-373.334-372.054c-4.392-4.215-6.729-10.133-6.4-16.213z" />
<glyph unicode="&#xe939;" glyph-name="Email" d="M617.587 424.346c-30.016-22.754-73.489-55.706-105.587-55.706v-2.133c-30.955-0.354-75.857 33.412-106.249 56.269-6.052 4.548-11.528 8.666-16.205 11.998-196.38 142.167-231.405 169.129-272.691 200.91-5.179 3.986-10.456 8.049-16.163 12.424-9.305 7.735-14.888 19.056-15.36 31.147v31.147c0 43.594 35.34 78.933 78.933 78.933h695.467c43.593 0 78.933-35.34 78.933-78.933v-31.147c-0.064-12.19-5.726-23.675-15.36-31.147-50.773-40.533-67.84-53.333-288.853-211.2-4.877-3.473-10.577-7.795-16.866-12.561zM938.667 192v372.48c1.425 4.776-0.96 9.859-5.538 11.823-4.582 1.963-9.903 0.181-12.382-4.143-36.693-28.587-85.333-64.853-256-187.307-5.513-3.857-11.712-8.495-18.487-13.559-35.179-26.304-85.811-64.162-135.539-64.521-50.287-0.363-100.574 37.926-136.036 64.93-6.36 4.843-12.243 9.323-17.564 13.15-170.667 122.453-218.453 158.293-256 187.307-3.010 2.313-7.084 2.682-10.461 0.948s-5.451-5.26-5.325-9.054v-372.053c0-47.13 38.205-85.333 85.333-85.333h682.667c47.13 0 85.333 38.204 85.333 85.333z" />
<glyph unicode="&#xe93a;" glyph-name="Event" d="M749.632 734.308h73.374c40.29 0 72.964-32.671 72.964-72.957v-62.301c0-5.888-4.77-10.656-10.658-10.656h-746.656c-5.888 0-10.656 4.768-10.656 10.656v62.301c0 40.286 32.672 72.957 72.96 72.957h73.376v73.405c0.224 13.312 10.976 24.063 24.32 24.287h48.64c13.44 0 24.32-10.88 24.32-24.319v-73.373h280.736v73.373c0 13.44 10.88 24.319 24.32 24.319h48.67c13.316-0.224 24.064-10.976 24.29-24.319v-73.373zM885.312 539.308h-746.656c-5.728 0-10.432-4.544-10.656-10.208v-402.799c0.48-34.496 28.576-62.302 63.136-62.302h641.73c34.59 0 62.656 27.776 63.134 62.238v402.799c-0.226 5.696-4.928 10.24-10.658 10.24l-0.030 0.032zM439.006 243.639c-0.222-11.678-9.63-21.086-21.31-21.342h-152.768c-11.68 0.222-21.088 9.63-21.344 21.312v152.759c0.224 11.682 9.632 21.090 21.312 21.346h152.768c11.678-0.226 21.086-9.634 21.342-21.312v-152.764z" />
<glyph unicode="&#xe93b;" glyph-name="Exchange" d="M914.773 490.667h-786.773c-23.564 0-42.667 19.102-42.667 42.667s19.103 42.667 42.667 42.667h535.040l-65.707 191.573c0.171 9.308 5.734 17.669 14.251 21.425 8.521 3.756 18.441 2.221 25.429-3.931l293.547-251.733c8.845-6.089 12.433-17.404 8.704-27.473-3.725-10.074-13.811-16.329-24.491-15.194zM109.226 405.333h786.774c23.565 0 42.667-19.102 42.667-42.667s-19.102-42.667-42.667-42.667h-535.041l65.707-191.573c-0.171-9.31-5.732-17.668-14.251-21.423-8.518-3.759-18.442-2.223-25.429 3.93l-293.547 251.733c-8.847 6.089-12.432 17.404-8.705 27.473 3.726 10.074 13.814 16.329 24.492 15.194z" />
<glyph unicode="&#xe93c;" glyph-name="External" d="M776 352h-48c-13.201 0-24-10.799-24-24v-168h-480v480h216c13.201 0 24 10.8 24 24v48c0 13.2-10.799 24-24 24h-240c-39.75 0-72-32.25-72-72v-528c0-39.748 32.25-72 72-72h528c39.748 0 72 32.252 72 72v192c0 13.201-10.799 24-24 24zM859.998 832h-192c-32.098 0-48-38.85-25.498-61.5l53.551-53.55-365.551-365.552c-14.1-14.097-14.1-36.898-0.15-50.85 0 0 0 0 0.15-0.149l34.050-33.899c14.1-14.101 36.9-14.101 50.85-0.149 0 0 0 0 0.15 0.149l365.399 365.55 53.551-53.55c22.498-22.5 61.5-6.75 61.5 25.5v192c0 19.95-16.051 36-36.002 36z" />
<glyph unicode="&#xe93d;" glyph-name="File" d="M682.667 661.333h213.333c23.565 0 42.667-19.103 42.667-42.667v-298.666c0-23.565-19.102-42.667-42.667-42.667h-554.667c-47.128 0-85.333 38.204-85.333 85.333v384c0 23.564 19.103 42.667 42.667 42.667h275.627c14.426 0.070 27.908-7.153 35.84-19.2l72.533-108.8zM213.333 618.667v-313.173c0.233-39.019 31.807-70.592 70.827-70.827h483.84v-85.333c0-23.565-19.102-42.667-42.667-42.667h-554.667c-47.128 0-85.333 38.204-85.333 85.333v384c0 23.564 19.103 42.667 42.667 42.667h85.333z" />
<glyph unicode="&#xe93e;" glyph-name="Filter" d="M859.665 832h-695.338c-32.299 0-48.512-39.509-25.6-62.635l277.291-280.491v-311.083c0-18.688 10.283-35.712 26.538-44.075l130.688-67.072c15.957-8.192 34.773 3.712 34.773 22.016v400.213l277.291 280.491c22.869 23.125 6.656 62.635-25.643 62.635z" />
<glyph unicode="&#xe93f;" glyph-name="Fix" d="M931.554 692.836c-3.733 15.050-22.566 20.15-33.536 9.183l-123.934-123.933-113.131 18.85-18.85 113.133 123.934 123.933c11.034 11.034 5.717 29.833-9.434 33.6-78.967 19.567-165.918-1.516-227.635-63.216-66.065-66.067-84.25-161.833-56.747-245.333l-355.651-355.648c-41.65-41.651-41.65-109.184 0-150.835 41.65-41.647 109.183-41.647 150.833 0l355.35 355.349c83.533-27.849 179.115-9.463 245.615 57.033 61.781 61.786 82.833 148.868 63.185 227.885zM192.004 88.004c-22.083 0-40 17.916-40 40 0 22.101 17.917 40 40 40s40-17.899 40-40c0-22.084-17.917-40-40-40z" />
<glyph unicode="&#xe940;" glyph-name="Flag" d="M212.062 874.648c-22.976-0.672-41.395-19.509-41.395-42.648v-769.271c0-22.861 18.533-41.395 41.395-41.395s41.395 18.534 41.395 41.395v385.271h562.287c28.962 0 47.488 27.588 31.97 52.041-11.678 18.394-25.451 37.73-38.908 56.623-30.089 42.24-58.607 82.272-58.607 104.67s28.518 62.43 58.607 104.67c13.457 18.893 27.23 38.228 38.908 56.623 15.518 24.452-3.008 52.040-31.97 52.040l-603.682-0.019z" />
<glyph unicode="&#xe941;" glyph-name="Flow" d="M256 661.333v85.333l512 2.731v-88.064h-512zM768 341.333l-512-2.731-2.731 88.064 514.731 2.731v-88.064zM773.035 576c44.288 0 80.299 36.011 80.299 80.299v93.099c0 45.568-37.035 82.603-82.603 82.603h-519.765c-44.288 0-80.299-36.011-80.299-80.299v-95.403c0-44.288 36.011-80.299 80.299-80.299h218.368v-64h-216.064c-45.568 0-82.603-37.035-82.603-82.603v-90.795c0-45.568 37.035-82.603 82.603-82.603h216.064v-64h-73.6c-9.813 0-15.275-11.392-9.131-19.115l116.224-147.115c4.693-5.931 13.653-5.931 18.347 0l116.224 147.115c6.144 7.723 0.683 19.115-9.131 19.115h-73.6v64h216.064c45.568 0 82.603 37.035 82.603 82.603v90.795c0 45.568-37.035 82.603-82.603 82.603h-216.064v64h218.368z" />
<glyph unicode="&#xe942;" glyph-name="FlowsStatistics" d="M567.351 828.255c-12.625 2.364-23.919-7.609-23.919-20.451v-307.981c0-11.78 9.553-21.333 21.333-21.333h307.123c12.813 0 22.78 11.247 20.459 23.851-30.319 164.876-160.119 295.040-324.996 325.915zM479.407 724.014c4.71 0.131 8.533 3.938 8.533 8.651v42.895c0 4.713-3.849 8.544-8.563 8.434-194.859-4.543-351.377-163.779-351.377-359.516 0-198.596 161.279-360.478 360.094-360.478 195.955 0 355.29 156.416 359.842 351.057 0.107 4.71-3.721 8.559-8.435 8.559h-42.961c-4.715 0-8.521-3.823-8.657-8.533-0.499-17.6-2.539-34.773-5.914-51.43l-0.311-1.643c-0.077-0.311-0.137-0.606-0.196-0.9s-0.119-0.585-0.196-0.9c-0.115-0.431-0.213-0.879-0.311-1.331-0.098-0.448-0.196-0.9-0.316-1.331-0.068-0.277-0.124-0.538-0.175-0.789-0.064-0.32-0.128-0.627-0.218-0.93-0.115-0.55-0.252-1.097-0.393-1.647-0.137-0.546-0.273-1.092-0.388-1.643l-0.115-0.538-0.119-0.559c-0.316-1.408-0.708-2.893-1.101-4.305-0.043-0.222-0.085-0.418-0.132-0.602l-0.102-0.414-0.939-3.29c-0.077-0.273-0.158-0.529-0.235-0.781-0.081-0.256-0.158-0.512-0.235-0.785-0.119-0.431-0.256-0.879-0.393-1.331l-0.154-0.508c-0.085-0.277-0.166-0.555-0.239-0.823-0.077-0.311-0.175-0.606-0.273-0.9-0.098-0.29-0.196-0.585-0.277-0.896l-0.183-0.597-0.128-0.384c-0.162-0.495-0.329-1.011-0.469-1.527-0.090-0.358-0.205-0.691-0.32-1.015-0.081-0.239-0.162-0.469-0.23-0.704-0.128-0.384-0.243-0.755-0.354-1.118-0.162-0.525-0.32-1.037-0.508-1.545-0.077-0.273-0.175-0.546-0.273-0.823l-0.077-0.213-0.102-0.29-0.094-0.316-0.226-0.666-0.247-0.704c-0.154-0.452-0.311-0.9-0.469-1.37-0.188-0.38-0.329-0.806-0.457-1.203l-0.090-0.286-1.178-3.29-0.038-0.132-0.081-0.209-0.038-0.085c-0.055-0.141-0.115-0.277-0.154-0.431-0.273-0.704-0.529-1.387-0.781-2.069-0.256-0.683-0.512-1.378-0.789-2.082-0.154-0.311-0.311-0.704-0.469-1.097-0.196-0.508-0.393-0.998-0.589-1.485-0.196-0.491-0.393-0.981-0.585-1.489-0.119-0.235-0.218-0.486-0.316-0.742s-0.196-0.508-0.311-0.742c-0.196-0.431-0.375-0.862-0.55-1.293l-0.307-0.742-0.243-0.55c-0.154-0.469-0.388-1.015-0.623-1.485-0.196-0.431-0.375-0.862-0.55-1.293s-0.354-0.862-0.55-1.293c-0.115-0.273-0.235-0.529-0.35-0.781-0.119-0.256-0.239-0.512-0.354-0.785-0.239-0.653-0.521-1.263-0.815-1.894l-0.282-0.61c-0.119-0.273-0.235-0.529-0.354-0.781-0.115-0.256-0.235-0.512-0.35-0.785l-0.316-0.678-0.311-0.649c-0.213-0.448-0.431-0.905-0.627-1.335-0.119-0.192-0.218-0.41-0.316-0.623-0.098-0.218-0.196-0.431-0.311-0.627-0.235-0.508-0.491-1.020-0.747-1.527l-0.482-0.977-0.26-0.55-0.469-0.939c-0.316-0.627-0.649-1.271-0.981-1.92-0.329-0.636-0.67-1.297-0.981-1.916-0.077-0.196-0.175-0.371-0.273-0.546-0.098-0.179-0.196-0.354-0.273-0.55-0.235-0.465-0.486-0.934-0.742-1.404s-0.512-0.943-0.747-1.412c-0.119-0.235-0.235-0.452-0.354-0.666-0.115-0.218-0.235-0.431-0.35-0.666-0.469-0.781-0.939-1.643-1.408-2.5-0.145-0.337-0.32-0.644-0.486-0.939-0.102-0.183-0.209-0.371-0.303-0.555-0.235-0.393-0.448-0.781-0.666-1.173l-0.307-0.555c-0.115-0.209-0.235-0.414-0.358-0.619-0.171-0.401-0.384-0.759-0.606-1.135l-0.256-0.431c-0.235-0.354-0.452-0.725-0.666-1.097-0.218-0.371-0.431-0.742-0.666-1.097-0.158-0.273-0.316-0.529-0.469-0.781l-0.222-0.363-0.252-0.422-1.408-2.347c-0.119-0.235-0.256-0.452-0.393-0.666-0.137-0.218-0.273-0.431-0.393-0.666-0.311-0.508-0.627-0.998-0.939-1.489-0.311-0.486-0.631-0.981-0.943-1.485l-0.469-0.704c-0.862-1.254-1.647-2.428-2.428-3.682-0.119-0.154-0.218-0.311-0.316-0.469-0.098-0.154-0.196-0.311-0.311-0.469-0.316-0.431-0.61-0.879-0.9-1.331-0.294-0.448-0.589-0.9-0.905-1.331-0.154-0.235-0.311-0.448-0.469-0.666-0.158-0.213-0.311-0.427-0.469-0.666-0.273-0.35-0.529-0.721-0.785-1.092-0.252-0.371-0.508-0.747-0.781-1.097-0.196-0.235-0.375-0.491-0.55-0.742-0.175-0.256-0.354-0.512-0.55-0.747l-0.282-0.375c-0.397-0.525-0.828-1.092-1.203-1.66-0.107-0.128-0.209-0.256-0.307-0.38l-0.243-0.324c-0.175-0.23-0.354-0.469-0.55-0.704-0.469-0.704-1.015-1.408-1.566-2.112l-0.158-0.196c-0.282-0.35-0.597-0.742-0.862-1.135-0.439-0.495-0.836-1.024-1.229-1.54l-0.495-0.653c-0.111-0.141-0.222-0.29-0.337-0.444l-0.132-0.183-0.154-0.209c-0.107-0.141-0.209-0.286-0.316-0.418l-0.23-0.282-0.29-0.367-0.499-0.64c-0.333-0.431-0.666-0.862-1.020-1.293l-0.119-0.158-0.23-0.273c-0.119-0.137-0.239-0.273-0.354-0.431-0.862-1.097-1.805-2.27-2.743-3.366-0.119-0.115-0.235-0.252-0.354-0.388l-0.124-0.149c-0.077-0.085-0.154-0.166-0.226-0.243l-0.452-0.542-0.606-0.713c-0.354-0.41-0.708-0.823-1.058-1.25-0.316-0.469-0.627-0.862-1.020-1.254-0.405-0.405-0.781-0.845-1.165-1.297l-0.324-0.38-0.311-0.358c-0.316-0.393-0.708-0.862-1.101-1.25l-1.801-2.035c-0.196-0.196-0.393-0.414-0.589-0.627l-0.29-0.316-0.294-0.311c-0.316-0.311-0.61-0.644-0.9-0.977-0.294-0.333-0.589-0.666-0.905-0.981-0.196-0.196-0.393-0.41-0.589-0.623-0.192-0.218-0.393-0.431-0.585-0.627-0.311-0.311-0.623-0.644-0.934-0.973-0.316-0.333-0.636-0.67-0.947-0.986l-1.178-1.173c-0.516-0.469-1.003-0.969-1.498-1.481l-0.414-0.427-0.358-0.363-0.785-0.785c-0.508-0.503-1.037-1.011-1.562-1.519-0.529-0.508-1.062-1.024-1.574-1.532l-0.627-0.627c-0.781-0.781-1.643-1.643-2.505-2.428-0.213-0.265-0.461-0.491-0.695-0.708-0.115-0.107-0.222-0.205-0.324-0.307-0.354-0.311-0.704-0.644-1.058-0.977s-0.704-0.666-1.058-0.981c-0.196-0.196-0.393-0.371-0.589-0.546-0.196-0.179-0.393-0.354-0.589-0.55l-2.035-1.801-0.166-0.141-0.209-0.179-0.29-0.265c-0.213-0.192-0.431-0.393-0.666-0.589-0.23-0.201-0.452-0.405-0.67-0.606-0.452-0.418-0.892-0.823-1.37-1.195l-0.162-0.154-0.107-0.098-0.358-0.294c-0.213-0.179-0.431-0.354-0.627-0.55-0.35-0.311-0.704-0.606-1.058-0.9l-0.41-0.341c-0.218-0.183-0.431-0.367-0.649-0.559l-0.631-0.512-0.623-0.503c-0.781-0.704-1.566-1.331-2.347-1.958l-0.512-0.388-0.508-0.393c-0.393-0.307-0.781-0.623-1.173-0.943-0.717-0.576-1.442-1.165-2.197-1.719-0.119-0.077-0.218-0.158-0.316-0.235l-0.183-0.145-0.128-0.090c-0.943-0.785-1.882-1.489-2.82-2.193-0.393-0.235-0.785-0.546-1.178-0.862-0.704-0.623-1.489-1.173-2.27-1.719-0.235-0.158-0.474-0.333-0.708-0.512-0.235-0.175-0.469-0.35-0.704-0.508-0.354-0.273-0.708-0.529-1.058-0.781-0.354-0.256-0.704-0.512-1.058-0.785-0.235-0.154-0.469-0.333-0.704-0.508s-0.474-0.354-0.708-0.508c-0.35-0.235-0.725-0.491-1.097-0.747-0.371-0.252-0.742-0.508-1.097-0.742-0.346-0.196-0.661-0.427-0.969-0.649-0.175-0.128-0.35-0.252-0.521-0.367-0.393-0.235-0.764-0.491-1.135-0.747-0.375-0.252-0.747-0.508-1.139-0.742-0.333-0.166-0.623-0.371-0.934-0.589l-0.397-0.273c-0.431-0.273-0.883-0.567-1.331-0.862-0.452-0.294-0.9-0.585-1.331-0.858-0.316-0.158-0.708-0.393-1.020-0.627-0.905-0.508-1.766-1.058-2.645-1.617l-1.037-0.653-0.179-0.124c-0.205-0.141-0.444-0.307-0.683-0.427-0.631-0.337-1.229-0.704-1.818-1.067-0.363-0.222-0.725-0.444-1.084-0.653l-0.337-0.209c-0.311-0.192-0.653-0.405-0.994-0.576-0.393-0.235-0.802-0.469-1.216-0.704l-0.589-0.337-0.627-0.367-0.486-0.273c-0.35-0.192-0.674-0.371-1.003-0.589-0.862-0.393-1.643-0.862-2.428-1.331-0.235-0.154-0.491-0.29-0.742-0.431-0.256-0.137-0.512-0.273-0.747-0.431-0.393-0.235-0.785-0.448-1.173-0.661-0.393-0.218-0.785-0.431-1.178-0.666-0.333-0.145-0.64-0.316-0.934-0.482-0.188-0.107-0.371-0.209-0.555-0.303-0.862-0.393-1.724-0.862-2.586-1.331-0.393-0.235-0.862-0.469-1.331-0.704l-2.825-1.408-0.316-0.166c-0.243-0.132-0.512-0.277-0.781-0.384-1.331-0.704-2.662-1.327-3.994-1.954l-0.149-0.030-0.132-0.068-0.111-0.060-3.529-1.643c-0.235-0.119-0.469-0.218-0.704-0.316s-0.469-0.192-0.704-0.311l-2.586-1.173-1.647-0.704c-0.393-0.158-0.785-0.333-1.178-0.512-0.393-0.175-0.781-0.35-1.173-0.508-0.273-0.115-0.567-0.235-0.862-0.35-0.294-0.119-0.589-0.235-0.862-0.354-0.785-0.393-1.57-0.704-2.351-1.015-0.316-0.119-0.61-0.235-0.9-0.354-0.294-0.115-0.589-0.235-0.905-0.354l-2.351-0.939c-0.311-0.115-0.606-0.235-0.9-0.35-0.294-0.119-0.589-0.235-0.9-0.354-0.862-0.393-1.724-0.704-2.586-1.015-0.235-0.081-0.491-0.179-0.747-0.277-0.252-0.094-0.512-0.196-0.742-0.273-1.412-0.546-2.743-1.015-4.156-1.485l-8.461-2.82-1.647-0.469c-0.431-0.115-0.862-0.252-1.289-0.388-0.431-0.137-0.866-0.277-1.297-0.393-0.222-0.064-0.457-0.141-0.695-0.218-0.358-0.115-0.734-0.239-1.109-0.333l-0.627-0.183-0.589-0.166c-0.405-0.119-0.823-0.239-1.212-0.354-0.627-0.235-1.254-0.393-1.882-0.546-0.939-0.235-1.801-0.469-2.662-0.708-0.55-0.077-1.101-0.235-1.647-0.388-0.508-0.119-1.020-0.256-1.527-0.393-0.512-0.137-1.020-0.273-1.527-0.393-0.239-0.038-0.452-0.098-0.67-0.154l-0.265-0.073-0.273-0.064-0.128-0.021c-0.704-0.158-1.429-0.333-2.155-0.508-0.725-0.179-1.451-0.354-2.155-0.512-0.115-0.038-0.235-0.055-0.35-0.077-0.119-0.021-0.239-0.038-0.354-0.077l-0.542-0.115-1.037-0.226c-0.691-0.154-1.404-0.311-2.103-0.444-0.239-0.038-0.474-0.098-0.708-0.154-0.235-0.060-0.469-0.119-0.704-0.158l-0.482-0.111c-0.841-0.196-1.638-0.384-2.496-0.516-0.311-0.038-0.606-0.098-0.9-0.158-0.294-0.055-0.589-0.115-0.9-0.154-0.943-0.235-1.805-0.393-2.743-0.55-0.316-0.038-0.61-0.098-0.905-0.154l-0.435-0.085c-0.149-0.030-0.303-0.051-0.465-0.073l-2.662-0.469c-0.384-0.043-0.742-0.107-1.092-0.171-0.294-0.055-0.58-0.107-0.866-0.145-0.431-0.077-0.883-0.137-1.335-0.192-0.448-0.060-0.9-0.119-1.331-0.196l-0.9-0.119-0.9-0.115c-1.020-0.081-2.035-0.235-3.055-0.393-0.55 0-1.020-0.077-1.493-0.158-0.742-0.077-1.485-0.175-2.223-0.273-0.742-0.098-1.502-0.196-2.244-0.273l-0.546-0.081-4.075-0.469c-0.124-0.017-0.247-0.034-0.367-0.047l-0.337-0.030c-0.239-0.021-0.474-0.038-0.708-0.077-1.097-0.158-2.116-0.235-3.213-0.316-0.273-0.038-0.567-0.055-0.862-0.077s-0.589-0.038-0.862-0.077l-2.82-0.235c-0.341-0.038-0.666-0.060-0.981-0.077-0.333-0.021-0.657-0.043-0.977-0.081-0.431-0.038-0.883-0.060-1.335-0.081-0.448-0.017-0.9-0.038-1.331-0.077-0.311 0-0.644-0.017-0.977-0.038-0.337-0.021-0.67-0.038-0.981-0.038-0.469 0-0.939-0.021-1.412-0.038-0.469-0.021-0.939-0.043-1.408-0.043-0.55-0.077-1.178-0.077-1.724-0.077-0.55 0-1.075-0.017-1.604-0.038s-1.062-0.038-1.609-0.038h-6.191c-165.669 0-299.99 134.17-299.99 299.652v6.106c0 0.55 0.020 1.097 0.039 1.647 0.020 0.546 0.039 1.092 0.039 1.643 0 0.273 0.020 0.567 0.039 0.862 0.020 0.29 0.039 0.585 0.039 0.858 0 0.943 0 1.882 0.078 2.82 0 0.311 0.020 0.644 0.039 0.977s0.039 0.666 0.039 0.981c0.039 0.427 0.059 0.879 0.079 1.327 0.019 0.452 0.039 0.9 0.078 1.331 0.039 0.354 0.059 0.687 0.079 1.020s0.039 0.666 0.079 1.015l0.235 2.743c0.040 0.282 0.060 0.585 0.080 0.896 0.019 0.294 0.038 0.597 0.076 0.905 0.146 0.947 0.224 1.967 0.298 2.927l0.016 0.201c0.039 0.235 0.058 0.469 0.078 0.704 0.020 0.239 0.039 0.474 0.079 0.708 0.079 1.331 0.235 2.658 0.392 3.989 0 0.119 0.020 0.235 0.039 0.354 0.020 0.115 0.039 0.235 0.039 0.35 0.079 0.747 0.176 1.468 0.274 2.193s0.196 1.451 0.274 2.193c0 0.546 0.078 1.015 0.157 1.485 0.079 1.020 0.235 2.035 0.392 3.055 0.079 0.627 0.157 1.173 0.235 1.719l0.47 2.82c0.157 0.627 0.235 1.173 0.314 1.801l0.47 2.739c0.039 0.316 0.098 0.606 0.157 0.9s0.117 0.589 0.157 0.9c0.235 0.939 0.392 1.801 0.549 2.739 0.039 0.277 0.098 0.567 0.157 0.862s0.117 0.589 0.157 0.862c0.118 0.508 0.215 0.998 0.314 1.489 0.098 0.486 0.196 0.977 0.314 1.485 0.039 0.235 0.098 0.469 0.157 0.704s0.117 0.469 0.157 0.704l0.117 0.589c0.198 0.998 0.405 2.048 0.667 3.093 0.039 0.115 0.059 0.235 0.079 0.35 0.020 0.119 0.039 0.235 0.078 0.354v0.077l0.144 0.653c0.267 1.207 0.543 2.458 0.875 3.652 0.039 0.235 0.098 0.469 0.157 0.704s0.118 0.469 0.157 0.704c0.117 0.512 0.255 0.998 0.392 1.489s0.274 0.977 0.392 1.489l0.47 1.643c0.117 0.469 0.235 0.917 0.352 1.37 0.118 0.448 0.235 0.9 0.353 1.37l0.47 1.643c0.313 0.862 0.548 1.724 0.783 2.586 0.079 0.311 0.177 0.606 0.274 0.9s0.196 0.585 0.274 0.9c0.118 0.431 0.255 0.841 0.392 1.25 0.137 0.414 0.274 0.823 0.392 1.254 0.078 0.311 0.176 0.606 0.274 0.9s0.196 0.585 0.274 0.9c0.157 0.469 0.294 0.917 0.431 1.37 0.137 0.448 0.274 0.9 0.431 1.37 0.079 0.235 0.157 0.491 0.235 0.742 0.079 0.256 0.157 0.508 0.235 0.747 0.195 0.585 0.411 1.19 0.626 1.796s0.432 1.216 0.628 1.801c0.039 0.081 0.078 0.179 0.117 0.277s0.079 0.196 0.118 0.273c0.288 0.862 0.605 1.724 0.916 2.573 0.197 0.533 0.391 1.058 0.573 1.574 0.092 0.32 0.21 0.614 0.323 0.896 0.081 0.201 0.16 0.397 0.225 0.593 0.157 0.469 0.333 0.917 0.509 1.37 0.177 0.448 0.353 0.9 0.51 1.37 0.117 0.273 0.215 0.529 0.314 0.781 0.098 0.256 0.196 0.512 0.313 0.785 0.157 0.43 0.333 0.86 0.509 1.291s0.353 0.862 0.51 1.293l0.705 1.644c0.392 0.861 0.705 1.644 1.019 2.426 0.116 0.272 0.233 0.564 0.35 0.855 0.117 0.294 0.237 0.593 0.355 0.867 0.157 0.392 0.333 0.803 0.509 1.213s0.352 0.822 0.509 1.213l0.705 1.644 1.175 2.583c0.157 0.47 0.392 0.94 0.627 1.409l1.646 3.523c0 0.114 0.042 0.187 0.095 0.279l0.062 0.112 0.638 1.258c0.443 0.868 0.901 1.764 1.321 2.656 0.118 0.196 0.215 0.411 0.314 0.626s0.196 0.431 0.314 0.627c0.392 0.939 0.862 1.801 1.332 2.662 0.314 0.548 0.549 1.018 0.784 1.487 0.234 0.429 0.449 0.838 0.663 1.248s0.434 0.827 0.669 1.257c0.144 0.334 0.316 0.639 0.483 0.933 0.106 0.188 0.209 0.371 0.301 0.554 0.235 0.392 0.451 0.803 0.666 1.213s0.431 0.822 0.666 1.213c0.157 0.235 0.294 0.489 0.431 0.744s0.274 0.509 0.431 0.744c0.235 0.391 0.451 0.783 0.666 1.174s0.431 0.783 0.666 1.174c0.157 0.235 0.294 0.489 0.431 0.744s0.274 0.509 0.431 0.744c0.392 0.783 0.862 1.565 1.332 2.348l0.273 0.489c0.193 0.35 0.372 0.675 0.589 0.999 0.274 0.47 0.549 0.92 0.823 1.37s0.549 0.9 0.823 1.37c0.117 0.157 0.215 0.313 0.313 0.47s0.196 0.313 0.314 0.47c0.705 1.252 1.489 2.505 2.272 3.679 0.118 0.157 0.235 0.332 0.353 0.509s0.235 0.352 0.353 0.509c0.274 0.431 0.568 0.861 0.862 1.292s0.588 0.861 0.862 1.292c0.314 0.391 0.627 0.861 0.94 1.331 0.47 0.783 0.94 1.487 1.489 2.27 0.157 0.235 0.333 0.489 0.509 0.743s0.352 0.509 0.509 0.744c0.549 0.704 1.019 1.409 1.489 2.113 0.196 0.235 0.372 0.489 0.548 0.744s0.353 0.509 0.549 0.744l0.376 0.54c0.398 0.574 0.772 1.113 1.192 1.652l0.158 0.196c0.28 0.348 0.598 0.741 0.861 1.135 0.274 0.391 0.568 0.763 0.862 1.135s0.588 0.744 0.862 1.135c0.235 0.391 0.549 0.783 0.862 1.174l2.116 2.818c0.235 0.157 0.392 0.392 0.548 0.626l2.743 3.444c0.117 0.117 0.215 0.254 0.313 0.391s0.196 0.274 0.314 0.392l2.116 2.583 1.019 1.252c0.274 0.352 0.568 0.685 0.862 1.018s0.588 0.666 0.862 1.018l1.175 1.409c0.548 0.704 1.097 1.33 1.645 1.957 0.392 0.391 0.784 0.861 1.176 1.331 0.313 0.313 0.608 0.646 0.901 0.979s0.588 0.665 0.902 0.978c0.196 0.196 0.392 0.411 0.588 0.626s0.392 0.431 0.588 0.626c0.313 0.352 0.627 0.685 0.94 1.018s0.627 0.665 0.94 1.018c0.196 0.196 0.372 0.391 0.548 0.587s0.353 0.391 0.549 0.587c0.705 0.861 1.489 1.644 2.273 2.426l0.705 0.705c1.018 1.096 2.037 2.113 3.056 3.131 0.314 0.235 0.549 0.47 0.784 0.705 0.783 0.704 1.567 1.487 2.351 2.27 0.133 0.133 0.257 0.266 0.379 0.396 0.235 0.252 0.46 0.493 0.718 0.7 0.352 0.313 0.705 0.645 1.057 0.977s0.706 0.666 1.059 0.979c0.196 0.196 0.392 0.372 0.588 0.548s0.392 0.352 0.588 0.548c0.353 0.313 0.686 0.626 1.019 0.94s0.666 0.626 1.019 0.939c0.196 0.196 0.392 0.372 0.588 0.548s0.392 0.352 0.588 0.548l2.116 1.879c0.196 0.196 0.392 0.372 0.588 0.548s0.392 0.352 0.588 0.548c0.353 0.313 0.725 0.626 1.097 0.939s0.745 0.626 1.097 0.94c0.314 0.313 0.705 0.626 1.097 0.939 0.862 0.783 1.724 1.487 2.586 2.192 0.235 0.157 0.548 0.392 0.783 0.626 0.549 0.47 1.117 0.92 1.685 1.37s1.136 0.9 1.684 1.37c0.157 0.117 0.294 0.235 0.431 0.352s0.274 0.235 0.431 0.352c0.431 0.352 0.862 0.685 1.293 1.018s0.862 0.665 1.293 1.018l1.175 0.94c0.392 0.274 0.764 0.567 1.136 0.861s0.745 0.587 1.136 0.861c0.235 0.157 0.451 0.333 0.666 0.509s0.431 0.352 0.666 0.509c0.784 0.548 1.489 1.096 2.194 1.644 0.235 0.157 0.47 0.332 0.705 0.509s0.47 0.352 0.705 0.509c0.352 0.274 0.705 0.528 1.058 0.783s0.705 0.509 1.058 0.783c0.235 0.157 0.47 0.333 0.705 0.509s0.47 0.352 0.705 0.509c0.391 0.273 0.762 0.527 1.134 0.781s0.747 0.51 1.139 0.785c0.236 0.157 0.451 0.313 0.666 0.47s0.431 0.313 0.666 0.469c0.392 0.274 0.803 0.548 1.215 0.822s0.823 0.548 1.215 0.822c0.196 0.117 0.392 0.254 0.588 0.391s0.392 0.274 0.588 0.392c0.587 0.391 1.194 0.782 1.801 1.173s1.216 0.783 1.804 1.175l0.705 0.47c0.94 0.626 1.881 1.252 2.9 1.879 0.235 0.157 0.47 0.294 0.705 0.431s0.47 0.274 0.705 0.431l2.351 1.409c0.274 0.157 0.529 0.313 0.784 0.47s0.509 0.313 0.783 0.47c0.392 0.235 0.764 0.45 1.136 0.665s0.745 0.431 1.137 0.666c0.399 0.171 0.757 0.384 1.135 0.608l0.433 0.253c0.392 0.235 0.784 0.45 1.176 0.666s0.784 0.431 1.175 0.665c0.235 0.157 0.489 0.294 0.744 0.43s0.51 0.274 0.745 0.431c0.431 0.235 0.842 0.469 1.253 0.704s0.824 0.47 1.255 0.705c0.235 0.117 0.451 0.235 0.666 0.352s0.431 0.235 0.666 0.352c0.47 0.235 0.94 0.489 1.411 0.744s0.94 0.509 1.41 0.744l1.097 0.548c0.497 0.248 0.993 0.508 1.495 0.771 0.765 0.401 1.541 0.807 2.345 1.186l0.94 0.469c0.509 0.235 1.018 0.489 1.528 0.744s1.019 0.509 1.528 0.744c0.195 0.117 0.411 0.215 0.626 0.313s0.432 0.196 0.628 0.314c0.431 0.196 0.881 0.411 1.332 0.626s0.901 0.431 1.332 0.626c0.274 0.117 0.529 0.235 0.784 0.352s0.509 0.235 0.783 0.352c0.392 0.195 0.803 0.372 1.215 0.548s0.823 0.352 1.215 0.548c0.627 0.313 1.175 0.548 1.724 0.783 0.392 0.157 0.804 0.333 1.215 0.509s0.823 0.352 1.215 0.509l1.646 0.704c0.431 0.157 0.842 0.333 1.254 0.509s0.823 0.352 1.254 0.509l1.646 0.705c0.47 0.195 0.94 0.372 1.411 0.548s0.94 0.352 1.411 0.548c0.196 0.079 0.412 0.157 0.627 0.235s0.431 0.157 0.627 0.235c0.705 0.274 1.391 0.528 2.077 0.783s1.372 0.509 2.077 0.783c0.157 0.039 0.313 0.098 0.47 0.157s0.314 0.117 0.47 0.157c0.549 0.196 1.077 0.391 1.606 0.587s1.058 0.391 1.606 0.587c0.274 0.079 0.549 0.176 0.823 0.274s0.549 0.196 0.823 0.274c0.94 0.235 1.802 0.548 2.664 0.861 0.274 0.078 0.548 0.176 0.823 0.273s0.549 0.196 0.823 0.274c0.431 0.157 0.881 0.294 1.332 0.431s0.901 0.274 1.332 0.431c0.47 0.157 1.018 0.313 1.566 0.469 0.862 0.313 1.804 0.627 2.666 0.861l1.646 0.47c0.431 0.117 0.881 0.254 1.332 0.391s0.901 0.274 1.332 0.391l1.646 0.47c0.47 0.117 0.96 0.254 1.45 0.392s0.98 0.274 1.45 0.391c0.235 0.078 0.47 0.137 0.705 0.195s0.471 0.118 0.706 0.196c0.705 0.196 1.43 0.372 2.155 0.548s1.45 0.352 2.155 0.548c0.117 0.039 0.215 0.058 0.313 0.078s0.196 0.039 0.314 0.079c0.646 0.172 1.317 0.32 1.997 0.471 0.557 0.123 1.122 0.249 1.686 0.39 0.274 0.078 0.529 0.137 0.784 0.196s0.509 0.117 0.783 0.195c0.627 0.157 1.332 0.313 2.038 0.47l1.175 0.235 2.976 0.626c16.734 3.438 33.933 5.424 51.499 5.91zM603.452 538.373v218.635c102.502-34.756 183.454-116.088 217.779-218.635h-217.779zM426.467 717.341l-0.491-0.184-0.243-0.094c-0.378-0.148-0.7-0.274-1.107-0.274l1.841 0.553zM426.351 717.1l1.66 0.736-2.056-0.921 0.396 0.184z" />
<glyph unicode="&#xe943;" glyph-name="Freeze" d="M399.666 706.653l-3.583 6.205 39.313 69.164c7.13 12.347 2.901 28.135-9.447 35.264s-28.135 2.898-35.264-9.449l-24.411-43.35-25.794 44.676c-8.553 14.815-26.383 17.243-41.199 8.692-14.813-8.555-22.78-25.877-14.227-40.692l25.794-44.676-49.819 0.493c-14.257 0-25.815-11.558-25.815-25.815s11.558-25.815 25.815-25.815l79.628-0.493 3.561-6.167-112.431-194.735h-7.122l-40.241 68.712c-7.128 12.347-22.917 16.577-35.264 9.449s-16.577-22.916-9.449-35.263l25.337-42.897h-51.587c-17.107 0-28.125-15.561-28.127-32.67 0.003-17.105 11.020-31.33 28.127-31.33h51.587l-25.337-42.816c-7.128-12.348-2.898-28.134 9.449-35.264s28.135-2.897 35.264 9.446l40.241 68.634 7.165 0.004 112.387-194.662-3.559-6.165-79.628-0.491c-14.257 0-25.815-11.558-25.815-25.813 0-14.259 11.558-25.818 25.815-25.818l49.819 0.495-25.794-44.676c-8.553-14.814-0.587-32.137 14.227-40.691 14.816-8.55 32.646-6.123 41.199 8.691l25.794 44.676 24.411-43.349c7.128-12.348 22.916-16.58 35.264-9.451s16.576 22.916 9.447 35.264l-39.313 69.163 3.583 6.208h224.769l3.558-6.165-39.386-69.21c-7.13-12.343-2.897-28.134 9.446-35.26 12.348-7.13 28.139-2.901 35.264 9.446l24.486 43.392 25.792-44.676c8.555-14.814 27.537-16.576 42.355-8.026 14.81 8.555 21.623 25.212 13.069 40.026l-25.792 44.676 49.745-0.533c14.259 0 25.818 11.558 25.818 25.813 0 14.259-11.558 25.813-25.818 25.813l-79.552 0.538-3.584 6.204-0.009-0.004 112.346 194.581h7.164l40.239-68.634c7.13-12.343 22.916-16.576 35.264-9.446s16.58 22.916 9.451 35.264l-25.335 42.816h51.584c17.109 0 28.126 14.225 28.13 31.33-0.004 17.109-11.021 32.67-28.13 32.67h-51.584l25.335 42.897c7.13 12.347 2.897 28.135-9.451 35.263s-28.134 2.898-35.264-9.449l-40.239-68.712h-7.121l-112.38 194.655 3.584 6.205 79.552 0.534c14.259 0 25.818 11.558 25.818 25.815s-11.558 25.815-25.818 25.815l-49.745-0.535 25.792 44.676c8.555 14.815 1.741 31.471-13.069 40.026-14.818 8.551-33.801 6.79-42.355-8.026l-25.792-44.676-24.486 43.392c-7.125 12.347-22.916 16.577-35.264 9.449-12.343-7.128-16.576-22.916-9.446-35.264l39.386-69.206-3.563-6.169-224.765 0.005zM414.956 343.906l41.62 72.090h-83.241c-17.673 0-32 14.327-32 32s14.327 32 32 32h83.241l-41.62 72.090c-8.836 15.305-3.593 34.876 11.711 43.713 15.309 8.836 34.88 3.593 43.716-11.713l41.617-72.090 41.621 72.090c8.836 15.305 28.407 20.549 43.712 11.713 15.309-8.837 20.553-28.407 11.716-43.713l-41.621-72.090h83.238c17.673 0 32-14.327 32-32s-14.327-32-32-32h-83.238l41.621-72.090c8.836-15.305 3.593-34.876-11.716-43.712-15.305-8.836-34.876-3.593-43.712 11.712l-41.621 72.090-41.617-72.090c-8.836-15.305-28.407-20.548-43.716-11.712-15.304 8.836-20.547 28.407-11.711 43.712zM277.336 447.996l117.333 203.226h234.668l117.333-203.226-117.333-203.23h-234.668l-117.333 203.23z" />
<glyph unicode="&#xe944;" glyph-name="Full" d="M256 874.667h512c47.13 0 85.333-38.205 85.333-85.333v-682.667c0-47.13-38.204-85.333-85.333-85.333h-512c-47.128 0-85.333 38.204-85.333 85.333v682.667c0 47.128 38.205 85.333 85.333 85.333zM725.333 106.667c23.565 0 42.667 19.102 42.667 42.667v426.667c0 23.564-19.102 42.667-42.667 42.667h-426.667c-23.564 0-42.667-19.103-42.667-42.667v-426.667c0-23.565 19.103-42.667 42.667-42.667h426.667z" />
<glyph unicode="&#xe945;" glyph-name="FullScreen" d="M341.333 746.667h-67.84l145.92-145.493c16.73-16.73 16.73-43.856 0-60.587s-43.856-16.73-60.587 0l-145.493 145.92v-67.84c0-23.564-19.103-42.667-42.667-42.667s-42.667 19.103-42.667 42.667v170.667c0 23.564 19.103 42.667 42.667 42.667h170.667c23.564 0 42.667-19.103 42.667-42.667s-19.103-42.667-42.667-42.667zM682.667 832h170.667c23.565 0 42.667-19.103 42.667-42.667v-170.667c0-23.564-19.102-42.667-42.667-42.667s-42.667 19.103-42.667 42.667v67.84l-145.493-145.92c-16.73-16.73-43.857-16.73-60.587 0s-16.73 43.856 0 60.587l145.92 145.493h-67.84c-23.565 0-42.667 19.103-42.667 42.667s19.102 42.667 42.667 42.667zM358.827 355.413l-145.493-145.92v67.84c0 23.565-19.103 42.667-42.667 42.667s-42.667-19.102-42.667-42.667v-170.667c0-23.565 19.103-42.667 42.667-42.667h170.667c23.564 0 42.667 19.102 42.667 42.667s-19.103 42.667-42.667 42.667h-67.84l145.92 145.493c16.73 16.73 16.73 43.857 0 60.587s-43.856 16.73-60.587 0zM810.667 277.333c0 23.565 19.102 42.667 42.667 42.667s42.667-19.102 42.667-42.667v-170.667c0-23.565-19.102-42.667-42.667-42.667h-170.667c-23.565 0-42.667 19.102-42.667 42.667s19.102 42.667 42.667 42.667h67.84l-145.92 145.493c-16.73 16.73-16.73 43.857 0 60.587s43.857 16.73 60.587 0l145.493-145.92v67.84z" />
<glyph unicode="&#xe946;" glyph-name="Function" d="M345.111 21.363c-0.192 0-0.416 0-0.671 0-77.829 0-144.125 49.412-169.332 118.635l-0.416 1.246c-2.524 5.794-4.026 12.544-4.026 19.618 0 9.984 2.939 19.264 7.956 27.072l-0.128-0.192c9.201 11.81 23.419 19.298 39.362 19.298 1.15 0 2.269-0.030 3.387-0.128h-0.16c0.16 0 0.319 0 0.511 0 20.927 0 38.819-13.15 45.815-31.68l0.128-0.354c9.649-34.978 41.151-60.228 78.564-60.228 44.921 0 81.376 36.484 81.376 81.51 0 1.826-0.064 3.648-0.192 5.44v-0.256 270.097h-67.733c-1.374-0.128-2.971-0.222-4.569-0.222-27.285 0-49.426 22.144-49.426 49.506s22.109 49.506 49.426 49.506c1.597 0 3.195-0.064 4.793-0.224l-0.192 0.032h67.735v124.584c0 0.512 0 1.12 0 1.728 0 97.446 78.050 176.651 174.921 178.315h0.162c78.498-0.992 145.242-50.243 172.079-119.464l0.448-1.28c2.62-5.92 4.151-12.833 4.151-20.129 0-9.568-2.65-18.561-7.249-26.209l0.128 0.224c-9.361-11.553-23.548-18.881-39.428-18.881-1.118 0-2.202 0.032-3.324 0.096h0.162c-0.32 0-0.704 0-1.088 0-20.8 0-38.498 13.185-45.239 31.682l-0.094 0.32c-12.335 32.898-43.452 55.908-79.97 55.908-0.034 0-0.098 0-0.128 0-43.23-0.704-78.020-35.939-78.020-79.365 0-1.056 0.030-2.112 0.060-3.136v0.16-124.584h66.871c26.935-0.48 48.563-22.465 48.563-49.474-0.256-27.14-22.268-49.058-49.425-49.058h-66.453v-267.955c-0.448-99.396-79.94-180.041-178.727-182.187h-0.192l-0.415 0.030zM642.466 21.363c-0.192 0-0.448 0-0.67 0-12.109 0-23.070 5.090-30.831 13.218-8.597 7.842-13.965 19.106-13.965 31.62 0 12.51 5.367 23.744 13.901 31.552l0.030 0.034 51.537 51.618-51.537 51.618c-8.593 7.842-13.961 19.072-13.961 31.586s5.367 23.744 13.897 31.556l0.034 0.030c7.761 8.162 18.722 13.218 30.831 13.218 0.256 0 0.478 0 0.734 0 0.192 0 0.414 0 0.64 0 12.109 0 23.066-5.090 30.831-13.218l51.533-51.652 51.537 51.622c7.795 8.192 18.752 13.312 30.925 13.312 0.96 0 1.92-0.034 2.876-0.098h-0.128c23.71-1.374 42.398-20.864 42.59-44.77 0-0.192 0-0.478 0-0.704 0-12.13-5.082-23.104-13.197-30.882l-51.567-51.618 51.537-51.618c8.179-7.808 13.291-18.786 13.291-30.98 0-0.96-0.030-1.92-0.094-2.88v0.128c-1.31-23.010-19.618-41.344-42.496-42.658h-0.128c-0.192 0-0.448 0-0.67 0-12.109 0-23.066 5.090-30.831 13.218l-53.675 51.648-51.537-51.618c-7.761-8.158-18.722-13.214-30.831-13.214-0.256 0-0.478 0-0.734 0l0.128-0.068z" />
<glyph unicode="&#xe947;" glyph-name="G" d="M556.749 64c64.521 0 123.665 10.671 177.429 32.013 53.769 21.342 92.791 50.807 117.073 88.397v247.851c0 23.565-19.102 42.667-42.667 42.667h-222.699c-23.565 0-42.667-19.102-42.667-42.667v-54.191c0-23.565 19.102-42.667 42.667-42.667h92.617v-88.875c-25.668-23.573-62.784-35.358-111.347-35.358-64.521 0-116.032 19.273-154.537 57.813-38.504 38.545-57.756 91.264-57.756 158.161 0 43.959 8.672 82.027 26.016 114.199s40.932 56.861 70.766 74.062c29.833 17.202 63.13 25.803 99.9 25.803 36.079 0 67.123-8.282 93.141-24.847 14.033-8.937 26.406-19.821 37.107-32.652 15.467-18.541 41.463-27.726 62.797-16.414l75.968 40.286c18.795 9.967 27.772 32.579 16.734 50.764-10.743 17.698-24.649 34.284-41.715 49.757-27.401 24.847-61.743 44.596-103.023 59.25s-87.241 21.98-137.886 21.98c-72.154 0-137.366-14.813-195.642-44.437s-104.239-71.992-137.886-127.101c-33.648-55.109-50.472-118.659-50.472-190.651 0-70.716 16.13-133.632 48.39-188.74s77.702-97.954 136.325-128.533c58.623-30.579 125.744-45.871 201.367-45.871z" />
<glyph unicode="&#xe948;" glyph-name="Geofence" d="M786.287 283.43c-0.602 0-1.148-0.175-1.749-0.175l-67.2 111.979c8.691 15.718 14.093 33.532 14.093 52.766s-5.385 37.047-14.093 52.766l67.2 111.977c0.602-0.017 1.148-0.172 1.749-0.172 60.599 0 109.713 49.114 109.713 109.714s-49.114 109.714-109.713 109.714c-40.508 0-75.499-22.2-94.494-54.857h-359.587c-18.994 32.657-53.983 54.857-94.491 54.857-60.6 0-109.714-49.114-109.714-109.714 0-40.509 22.2-75.497 54.857-94.491v-359.57c-32.657-19.012-54.857-54.003-54.857-94.511 0-60.599 49.114-109.713 109.714-109.713 40.509 0 75.497 22.199 94.491 54.857h359.57c19.012-32.657 53.982-54.857 94.494-54.857 60.599 0 109.713 49.114 109.713 109.713 0.017 60.599-49.097 109.717-109.696 109.717zM292.571 268.207v359.587c16.429 9.546 30.089 23.206 39.634 39.634h357.19l-65.933-109.886c-0.602 0.017-1.148 0.172-1.749 0.172-60.599 0-109.713-49.115-109.713-109.714s49.114-109.713 109.713-109.713c0.602 0 1.148 0.171 1.749 0.171l65.933-109.888h-357.19c-9.541 16.435-23.202 30.097-39.634 39.637zM594.287 448c0 15.121 12.309 27.43 27.426 27.43 15.121 0 27.43-12.309 27.43-27.43s-12.309-27.43-27.43-27.43c-15.117 0-27.426 12.309-27.426 27.43zM813.713 722.286c0-15.12-12.309-27.429-27.426-27.429-15.121 0-27.43 12.309-27.43 27.429s12.309 27.429 27.43 27.429c15.117 0 27.426-12.308 27.426-27.429zM237.714 749.714c15.12 0 27.429-12.308 27.429-27.429s-12.309-27.429-27.429-27.429c-15.12 0-27.429 12.309-27.429 27.429s12.308 27.429 27.429 27.429zM210.286 173.713c0 15.121 12.308 27.43 27.429 27.43s27.429-12.309 27.429-27.43c0-15.117-12.309-27.426-27.429-27.426s-27.429 12.309-27.429 27.426zM786.287 146.287c-15.121 0-27.43 12.309-27.43 27.426 0 15.121 12.309 27.43 27.43 27.43 15.117 0 27.426-12.309 27.426-27.43 0-15.117-12.309-27.426-27.426-27.426z" />
<glyph unicode="&#xe949;" glyph-name="Globe" d="M806.417 577.707c-14.037 9.856-22.784 24.107-40.405 28.629-15.403 3.797-31.36-0.171-46.507-2.816-17.237-3.029-37.973-4.395-51.029-17.451-12.715-12.757-19.541-29.611-33.067-42.325-26.155-24.704-37.163-51.627-20.267-86.528 16.299-33.621 50.475-51.84 87.253-49.323 36.267 2.432 73.856 23.296 72.747-29.269-0.427-18.603 3.584-31.488 9.259-48.768 5.291-15.915 4.949-31.275 6.059-47.829 1.152-19.328 4.224-38.315 8.917-57.088-69.035-89.387-175.147-141.184-287.488-141.184-20.309 0-40.576 1.707-60.715 5.12 0.213 5.12 0.384 9.856 0.725 13.269 4.565 30.208 19.755 59.776 40.064 82.389 20.139 22.187 47.616 37.376 64.683 62.592 16.725 24.704 21.632 57.899 14.848 86.741-10.069 42.496-67.968 56.747-99.243 79.872-17.877 13.312-34.005 33.792-57.513 35.499-10.837 0.768-19.925-1.536-30.72 1.152-9.899 2.645-17.664 7.765-28.117 6.443-19.712-2.688-32.085-23.552-53.163-20.693-20.053 2.645-40.576 26.197-45.141 45.184-5.888 24.448 13.483 32.427 34.347 34.688 8.704 0.981 18.432 1.92 26.752-1.323 11.008-3.968 16.128-14.805 26.027-20.309 18.389-10.027 22.187 6.059 19.371 22.4-4.224 24.491-9.131 34.56 12.715 51.413 15.147 11.605 28.075 20.139 25.771 41.003-1.493 12.331-8.149 17.835-1.92 30.165 4.779 9.301 17.877 17.664 26.409 23.381 22.016 14.421 94.293 13.269 64.725 53.504-8.747 11.733-24.661 32.811-39.893 35.669-18.944 3.584-27.305-17.664-40.575-26.965-13.653-9.643-40.235-20.693-53.888-5.675-18.432 20.096 12.16 26.752 18.987 40.789 2.987 6.443 0 15.573-5.333 24.277 6.827 2.859 13.824 5.504 20.864 7.979 4.395-3.2 9.685-5.291 15.189-5.717 12.715-0.725 24.66 6.101 35.711-2.645 12.331-9.472 21.035-21.419 37.504-24.448 15.787-2.859 32.469 6.229 36.48 22.571 2.261 9.856 0 20.309-2.304 30.336 70.997-0.341 140.245-21.589 199.253-61.099-3.797 1.536-8.32 1.365-13.824-1.28-11.605-5.333-27.904-18.987-29.227-32.469-1.536-15.403 21.035-17.451 31.872-17.451 16.128 0 32.427 7.211 27.349 25.813-2.304 8.149-5.333 16.469-10.24 21.589 11.904-8.32 23.339-17.237 34.133-26.709-0.171-0.213-0.384-0.384-0.555-0.597-11.008-11.392-23.765-20.48-31.147-34.133-5.333-9.685-11.179-14.421-21.803-16.896-5.888-1.365-12.544-1.92-17.493-5.888-13.653-10.837-5.845-36.821 7.040-44.629 16.512-9.856 40.832-5.291 53.333 8.917 9.685 11.051 15.36 30.208 32.811 30.208 7.595 0 15.019-3.029 20.523-8.363 7.211-7.381 5.675-14.421 7.381-23.723 2.688-16.512 17.28-7.595 26.197 0.768 6.443-11.563 12.331-23.552 17.451-35.669-9.899-14.037-17.621-29.44-41.173-13.099zM147.56 448.085c0 32.256 4.139 64.341 12.672 95.445 13.867-29.952 34.176-55.765 47.872-86.699 17.835-39.467 65.451-28.672 86.528-63.189 18.731-30.763-1.323-69.675 12.715-101.931 10.24-23.339 34.176-28.459 50.645-45.525 16.896-17.28 16.512-40.832 19.157-63.36 2.859-26.411 7.595-52.565 14.080-78.379 0-0.213 0-0.427 0.128-0.597-141.739 50.091-243.797 185.429-243.797 344.235zM815.718 745.472c-1.323 1.109-2.304 2.048-3.2 3.2-165.163 166.827-434.388 168.149-601.215 3.029-166.784-165.077-168.149-434.517-2.859-601.344 0.981-0.981 1.877-1.92 3.072-3.029 165.077-166.827 434.345-168.149 601.129-3.029 166.869 165.077 168.192 434.347 3.072 601.173z" />
<glyph unicode="&#xe94a;" glyph-name="GripHorizontal" d="M42.667 512c0-11.78 9.551-21.333 21.333-21.333h42.667c11.782 0 21.333 9.553 21.333 21.333v42.667c0 11.782-9.551 21.333-21.333 21.333h-42.667c-11.782 0-21.333-9.551-21.333-21.333v-42.667zM42.667 341.333c0-11.78 9.551-21.333 21.333-21.333h42.667c11.782 0 21.333 9.553 21.333 21.333v42.667c0 11.78-9.551 21.333-21.333 21.333h-42.667c-11.782 0-21.333-9.553-21.333-21.333v-42.667zM234.667 320c-11.782 0-21.333 9.553-21.333 21.333v42.667c0 11.78 9.551 21.333 21.333 21.333h42.667c11.782 0 21.333-9.553 21.333-21.333v-42.667c0-11.78-9.551-21.333-21.333-21.333h-42.667zM213.333 512c0-11.78 9.551-21.333 21.333-21.333h42.667c11.782 0 21.333 9.553 21.333 21.333v42.667c0 11.782-9.551 21.333-21.333 21.333h-42.667c-11.782 0-21.333-9.551-21.333-21.333v-42.667zM405.333 320c-11.782 0-21.333 9.553-21.333 21.333v42.667c0 11.78 9.551 21.333 21.333 21.333h42.667c11.78 0 21.333-9.553 21.333-21.333v-42.667c0-11.78-9.553-21.333-21.333-21.333h-42.667zM384 512c0-11.78 9.551-21.333 21.333-21.333h42.667c11.78 0 21.333 9.553 21.333 21.333v42.667c0 11.782-9.553 21.333-21.333 21.333h-42.667c-11.782 0-21.333-9.551-21.333-21.333v-42.667zM576 320c-11.78 0-21.333 9.553-21.333 21.333v42.667c0 11.78 9.553 21.333 21.333 21.333h42.667c11.78 0 21.333-9.553 21.333-21.333v-42.667c0-11.78-9.553-21.333-21.333-21.333h-42.667zM554.667 512c0-11.78 9.553-21.333 21.333-21.333h42.667c11.78 0 21.333 9.553 21.333 21.333v42.667c0 11.782-9.553 21.333-21.333 21.333h-42.667c-11.78 0-21.333-9.551-21.333-21.333v-42.667zM746.667 320c-11.78 0-21.333 9.553-21.333 21.333v42.667c0 11.78 9.553 21.333 21.333 21.333h42.667c11.78 0 21.333-9.553 21.333-21.333v-42.667c0-11.78-9.553-21.333-21.333-21.333h-42.667zM725.333 512c0-11.78 9.553-21.333 21.333-21.333h42.667c11.78 0 21.333 9.553 21.333 21.333v42.667c0 11.782-9.553 21.333-21.333 21.333h-42.667c-11.78 0-21.333-9.551-21.333-21.333v-42.667zM917.333 320c-11.78 0-21.333 9.553-21.333 21.333v42.667c0 11.78 9.553 21.333 21.333 21.333h42.667c11.78 0 21.333-9.553 21.333-21.333v-42.667c0-11.78-9.553-21.333-21.333-21.333h-42.667zM896 512c0-11.78 9.553-21.333 21.333-21.333h42.667c11.78 0 21.333 9.553 21.333 21.333v42.667c0 11.782-9.553 21.333-21.333 21.333h-42.667c-11.78 0-21.333-9.551-21.333-21.333v-42.667z" />
</font>
</defs>
</svg>
